<?xml version="1.0" standalone="no"?>
<!DOCTYPE svg PUBLIC "-//W3C//DTD SVG 1.1//EN" "http://www.w3.org/Graphics/SVG/1.1/DTD/svg11.dtd" >
<svg xmlns="http://www.w3.org/2000/svg">
<metadata>Generated by IcoMoon</metadata>
<defs>
<font id="mcf-icons" horiz-adv-x="1024">
<font-face units-per-em="1024" ascent="960" descent="-64" />
<missing-glyph horiz-adv-x="1024" />
<glyph unicode="&#x20;" horiz-adv-x="512" d="" />
<glyph unicode="&#xe901;" glyph-name="Ikoner_regular-outline_watch" d="M834.26 448c0 0.076 0 0.167 0 0.257 0 84.986-32.478 162.386-85.7 220.466l0.22-0.244-49.26 280.52h-385.88l-49.28-280.54c-52.995-57.925-85.463-135.401-85.463-220.46s32.468-162.534 85.687-220.709l-0.224 0.249 49.26-280.54h386l49.26 280.52c52.942 57.822 85.38 135.179 85.38 220.113 0 0.129 0 0.258 0 0.386v-0.020zM639.060 877l24.94-141.66c-45.412 25.39-99.64 40.341-157.36 40.341s-111.949-14.951-159.023-41.192l1.663 0.851 24.82 141.66zM506.58 703.68c141.208 0 255.68-114.472 255.68-255.68s-114.472-255.68-255.68-255.68c-141.208 0-255.68 114.472-255.68 255.68v0c0.182 141.135 114.545 255.498 255.662 255.68h0.018zM374 19l-24.8 141.66c45.415-25.39 99.646-40.341 157.37-40.341s111.955 14.951 159.033 41.192l-1.663-0.851-24.88-141.66zM563.34 355.34c0.002 0 0.005 0 0.008 0 19.882 0 36 16.118 36 36 0 9.943-4.031 18.945-10.548 25.46l-46.36 46.36v109.82c0 19.882-16.118 36-36 36s-36-16.118-36-36v0-139.64l67.56-67.46c6.489-6.487 15.442-10.508 25.334-10.54h0.006z" />
<glyph unicode="&#xe902;" glyph-name="Ikoner_regular-outline_user" d="M512 420.88c-145.82 0-264.46 118.64-264.46 264.46s118.64 264.48 264.46 264.48 264.46-118.64 264.46-264.48-118.64-264.46-264.46-264.46zM512 877.82c-0.006 0-0.013 0-0.020 0-106.304 0-192.48-86.176-192.48-192.48s86.176-192.48 192.48-192.48c106.304 0 192.48 86.176 192.48 192.48v0c-0.114 106.251-86.211 192.355-192.448 192.48h-0.012zM967.16-52.18c-19.882 0-36 16.118-36 36v0c0 181.2-188 328.64-419.16 328.64s-419.16-147.44-419.16-328.64c0-19.882-16.118-36-36-36s-36 16.118-36 36v0c0 108.54 52.14 210 146.8 286 92.34 74 214.64 114.72 344.36 114.72s252-40.74 344.36-114.72c94.66-75.84 146.8-177.38 146.8-286 0-19.882-16.118-36-36-36v0z" />
<glyph unicode="&#xe903;" glyph-name="warning-regular" horiz-adv-x="1182" d="M512 884.706l-505.976-873.412h1008.941l-502.965 873.412zM512 746.165l385.506-665.6h-771.012l385.506 665.6zM512 240.188c18.071 0 36.141 15.059 36.141 36.141v256c0 18.071-15.059 36.141-36.141 36.141s-36.141-15.059-36.141-36.141v-256c0-18.071 18.071-36.141 36.141-36.141zM548.141 192c0-19.96-16.181-36.141-36.141-36.141s-36.141 16.181-36.141 36.141c0 19.96 16.181 36.141 36.141 36.141s36.141-16.181 36.141-36.141z" />
<glyph unicode="&#xe904;" glyph-name="Ikoner_regular-outline_trash" d="M850.18 653.54c-19.882 0-36-16.118-36-36v0-598h-604.36v598c0 19.882-16.118 36-36 36s-36-16.118-36-36v0-670h748.36v670c0 19.882-16.118 36-36 36v0zM977 780.36h-259.9v169.1h-410.2v-169.1h-259.9c-19.882 0-36-16.118-36-36s16.118-36 36-36v0h930c19.882 0 36 16.118 36 36s-16.118 36-36 36v0zM379 877.46h266.2v-97.1h-266.3zM548 173.68v317.060c0 19.882-16.118 36-36 36s-36-16.118-36-36v0-317.060c0-19.882 16.118-36 36-36s36 16.118 36 36v0zM378.9 173.68v317.060c0 19.882-16.118 36-36 36s-36-16.118-36-36v0-317.060c0-19.882 16.118-36 36-36s36 16.118 36 36v0zM717.1 173.68v317.060c0 19.882-16.118 36-36 36s-36-16.118-36-36v0-317.060c0-19.882 16.118-36 36-36s36 16.118 36 36v0z" />
<glyph unicode="&#xe906;" glyph-name="Ikoner_regular-outline_thumbs-up" d="M1003.3 532.6c-12.771 42.703-42.808 76.753-81.802 94.635l-0.938 0.385c-18.375 8.22-39.817 13.035-62.376 13.1h-185.924v113.080c0 107.143-86.857 194-194 194v0c-25.275-0.006-47.037-15.038-56.841-36.648l-0.159-0.392-158.94-357.76h-241.14v-607.24h777.44c74.91 0.038 136.993 54.909 148.29 126.65l0.11 0.85 60.5 394.74c1.081 6.804 1.699 14.649 1.699 22.639 0 14.948-2.162 29.391-6.191 43.034l0.272-1.073zM93.18 481h156.54v-463.24h-156.54zM936.36 479l-60.52-395c-5.963-37.757-38.252-66.292-77.215-66.34h-476.905v491.7l162.76 366.26c64.641-3.402 115.768-56.638 115.78-121.819v-185.081h257.84c11.962-0.035 23.328-2.548 33.624-7.052l-0.544 0.212c10.611-4.851 19.569-11.606 26.8-19.906l0.080-0.094c11.926-13.588 19.201-31.514 19.201-51.139 0-4.165-0.328-8.254-0.959-12.242l0.057 0.441z" />
<glyph unicode="&#xe907;" glyph-name="Ikoner_regular-outline_thumbs-down" d="M228.58 947.76c-74.902-0.030-136.981-54.896-148.27-126.631l-0.11-0.849-60.5-394.72c-1.085-6.782-1.705-14.601-1.705-22.566 0-60.65 35.953-112.904 87.708-136.61l0.937-0.384c18.373-8.234 39.815-13.057 62.377-13.12h186.023v-113.080c0-0.030 0-0.065 0-0.1 0-107.088 86.812-193.9 193.9-193.9 0.035 0 0.070 0 0.105 0h-0.005c25.251 0.015 46.992 15.026 56.801 36.609l0.159 0.391 158.98 357.74h241.020v607.22zM542.74 18c-64.634 3.401-115.757 56.627-115.78 121.798v185.002h-257.84c-11.975 0.029-23.356 2.542-33.664 7.052l0.544-0.212c-10.616 4.855-19.58 11.61-26.821 19.907l-0.079 0.093c-11.919 13.576-19.192 31.488-19.192 51.098 0 4.187 0.332 8.297 0.97 12.304l-0.058-0.442 60.56 394.82c5.922 37.772 38.224 66.326 77.199 66.34h476.921v-491.58zM934 412.54h-156.5v463.22h156.5z" />
<glyph unicode="&#xe908;" glyph-name="Ikoner_regular-outline_tag-double" d="M1023.2 562.86l-639.36 388.1-354.64-102.2-22.34-377.7 529.020-529.060 400.12 400-29.1 29.080zM854.44 423.58l-400.78 400.76 470.64-285.68zM535.88 43.86l-455.24 455.24 16.66 281.56 281.56 16.66 455.24-455.32zM164.86 713.1c-16.546-16.544-26.78-39.401-26.78-64.647 0-50.49 40.93-91.42 91.42-91.42s91.42 40.93 91.42 91.42c0 25.247-10.234 48.103-26.78 64.647v0c-16.554 16.517-39.404 26.731-64.64 26.731s-48.086-10.214-64.642-26.733l0.002 0.002zM243.24 634.72c-3.514-3.51-8.365-5.68-13.724-5.68-10.725 0-19.42 8.695-19.42 19.42s8.695 19.42 19.42 19.42c5.359 0 10.21-2.17 13.724-5.68v0c3.505-3.522 5.671-8.378 5.671-13.74s-2.167-10.218-5.672-13.741l0.001 0.001z" />
<glyph unicode="&#xe909;" glyph-name="Ikoner_regular-outline_tag" d="M586-63.22l-580.86 580.94 24.4 412.46 412.46 24.4 580.94-580.94zM78.92 545.76l507.080-507.16 335.12 335.040-507.12 507.16-316.36-18.8zM247.38 615.12c-53.686 0.024-97.198 43.551-97.198 97.24 0 53.704 43.536 97.24 97.24 97.24s97.24-43.536 97.24-97.24c0-26.863-10.892-51.181-28.501-68.78v0c-17.555-17.583-41.823-28.46-68.631-28.46-0.053 0-0.105 0-0.158 0h0.008zM247.38 737.6c-13.943-0.010-25.243-11.315-25.243-25.26 0-13.951 11.309-25.26 25.26-25.26s25.26 11.309 25.26 25.26c0 6.985-2.835 13.307-7.417 17.88v0c-4.566 4.56-10.871 7.38-17.835 7.38-0.009 0-0.018 0-0.027 0h0.001z" />
<glyph unicode="&#xe90a;" glyph-name="Ikoner_regular-outline_sync-time" horiz-adv-x="1145" d="M632.74 825.34c-19.882 0-36-16.118-36-36v0-377.8h292.58c19.882 0 36 16.118 36 36s-16.118 36-36 36v0h-220.58v305.8c0 19.882-16.118 36-36 36v0zM987 801.8c-90.173 90.645-214.999 146.742-352.926 146.742-0.469 0-0.938-0.001-1.406-0.002h0.073q-6.48 0-12.92-0.16l-5.080-0.2c-2.56 0-5.14-0.16-7.72-0.3-2-0.1-4.14-0.24-6.22-0.38s-4.36-0.26-6.52-0.42-4.38-0.36-6.58-0.56l-6.16-0.52-6.48-0.72-6.32-0.74-6-0.82c-2.3-0.32-4.6-0.64-6.9-1l-5.24-0.84c-2.66-0.44-5.3-0.88-8-1.36l-4-0.76c-3.2-0.6-6.4-1.24-9.6-1.9l-2.24-0.48c-67.089-14.665-126.277-41.025-178.236-77.074l1.636 1.074-0.24-0.16q-4.54-3.12-9-6.34l-2.66-2c-2.18-1.58-4.34-3.2-6.48-4.82-1.52-1.14-3.040-2.28-4.54-3.44l-4.56-3.56-5.88-4.72-3.2-2.64q-3.4-2.82-6.72-5.66l-2.42-2q-3.56-3.12-7.080-6.26l-2.18-2c-2.32-2.12-4.64-4.26-6.92-6.42l-2.56-2.46q-3.12-3-6.2-6l-1.040-1.020c-0.84-0.84-1.66-1.7-2.48-2.54-1.66-1.68-3.3-3.36-4.94-5.060s-3.32-3.5-4.98-5.28c-0.8-0.88-1.64-1.74-2.46-2.62l-0.26-0.32c-81.607-88.939-131.621-208.014-131.621-338.77 0-47.266 6.535-93.005 18.751-136.363l-0.851 3.533-87.64 38.2c-4.238 1.896-9.185 3.001-14.39 3.001-19.883 0-36.001-16.118-36.001-36.001 0-14.678 8.784-27.304 21.382-32.909l0.229-0.091 201.26-87.82 86.58 198.44c1.899 4.241 3.005 9.191 3.005 14.4 0 19.885-16.12 36.005-36.005 36.005-14.676 0-27.302-8.781-32.909-21.376l-0.091-0.229-37.64-86.26c-8.626 32.18-13.58 69.125-13.58 107.228 0 113.088 43.643 215.982 115.006 292.759l-0.245-0.267c1.54 1.66 3.080 3.3 4.64 4.92s2.56 2.64 3.86 4l3.4 3.44c1.64 1.64 3.32 3.26 4.98 4.86l2.5 2.4c1.88 1.78 3.78 3.54 5.68 5.28l2.1 2c2 1.76 4 3.5 6 5.24l2.14 1.86c2 1.64 3.84 3.26 5.78 4.86l2.66 2.2c1.72 1.4 3.46 2.78 5.2 4.16l3.64 2.86 4.24 3.22c1.68 1.26 3.36 2.52 5.080 3.76l2.82 2c2.32 1.66 4.64 3.32 7 4.92l0.98 0.68c40.073 27.666 86.877 49.152 137.202 61.753l2.958 0.627 1.54 0.36c2.84 0.68 5.68 1.32 8.52 2l3.4 0.72 6.76 1.34 4.64 0.86 5.62 0.96 5.48 0.88 4.96 0.72 6 0.82 4.66 0.54c2 0.24 4.14 0.48 6.2 0.68l4.7 0.44 6.14 0.52 5.18 0.34 5.68 0.34 10.94 0.42c3.68 0 7.36 0.14 11.060 0.14 236.862-0.090 428.842-192.125 428.842-429 0-118.53-48.070-225.833-125.78-303.477l-0.003-0.003c-77.739-77.631-185.076-125.639-303.626-125.639-50.881 0-99.696 8.843-144.993 25.077l2.999-0.938c-3.553 1.288-7.655 2.032-11.93 2.032-19.9 0-36.032-16.132-36.032-36.032 0-15.625 9.945-28.927 23.851-33.921l0.251-0.079c49.523-17.991 106.686-28.394 166.28-28.394 276.739 0 501.080 224.341 501.080 501.080 0 138.427-56.132 263.744-146.877 354.431l-0.003 0.003z" />
<glyph unicode="&#xe90b;" glyph-name="Ikoner_regular-outline_sync" horiz-adv-x="1264" d="M308.12 430.84c-4.237 1.895-9.182 2.999-14.386 2.999-14.673 0-27.296-8.779-32.903-21.37l-0.091-0.229-38.88-89.1c-11.79 37.362-18.583 80.329-18.583 124.882 0 236.875 192.025 428.9 428.9 428.9 62.035 0 120.993-13.17 174.232-36.867l-2.729 1.085c4.241-1.899 9.191-3.005 14.4-3.005 19.885 0 36.005 16.12 36.005 36.005 0 14.676-8.781 27.302-21.376 32.909l-0.229 0.091c-59.061 26.491-128.010 41.921-200.564 41.921-276.551 0-500.74-224.189-500.74-500.74 0-52.362 8.037-102.847 22.945-150.289l-0.961 3.548-85.42 37.26c-4.241 1.899-9.191 3.005-14.4 3.005-19.885 0-36.005-16.12-36.005-36.005 0-14.676 8.781-27.302 21.376-32.909l0.229-0.091 201.24-87.78 86.54 198.4c1.895 4.237 2.999 9.182 2.999 14.386 0 14.673-8.779 27.296-21.37 32.903l-0.229 0.091zM1225.42 623.16l-201.22 87.78-86.56-198.4c-1.899-4.241-3.005-9.191-3.005-14.4 0-19.885 16.12-36.005 36.005-36.005 14.676 0 27.302 8.781 32.909 21.376l0.091 0.229 38.88 89.12c11.792-37.365 18.586-80.335 18.586-124.892 0-236.875-192.025-428.9-428.9-428.9-62.044 0-121.010 13.174-174.255 36.877l2.729-1.085c-4.238 1.896-9.185 3.001-14.39 3.001-19.883 0-36.001-16.118-36.001-36.001 0-14.678 8.784-27.304 21.382-32.909l0.229-0.091c59.071-26.504 128.035-41.943 200.604-41.943 276.529 0 500.7 224.171 500.7 500.7 0 52.385-8.045 102.891-22.966 150.349l0.962-3.547 85.44-37.26c4.238-1.896 9.185-3.001 14.39-3.001 19.883 0 36.001 16.118 36.001 36.001 0 14.678-8.784 27.304-21.382 32.909l-0.229 0.091z" />
<glyph unicode="&#xe90c;" glyph-name="Ikoner_regular-outline_sun" d="M512.62 110.52c-186 0-337.46 151.4-337.46 337.48s151.38 337.46 337.46 337.46 337.38-151.46 337.38-337.46-151.3-337.48-337.38-337.48zM512.62 713.46c-146.38 0-265.46-119.080-265.46-265.46s119.080-265.48 265.46-265.48 265.38 119.1 265.38 265.48-119 265.46-265.38 265.46zM512 804.7c-19.882 0-36 16.118-36 36v0 80.7c0 19.882 16.118 36 36 36s36-16.118 36-36v0-80.7c0-19.882-16.118-36-36-36v0zM512-61.12c-19.882 0-36 16.118-36 36v0 80.7c0 19.882 16.118 36 36 36s36-16.118 36-36v0-80.7c0-19.882-16.118-36-36-36v0zM789.58 689.6c-19.877 0.007-35.988 16.122-35.988 36 0 9.943 4.031 18.945 10.548 25.46l57.040 57.060c6.516 6.516 15.517 10.546 25.46 10.546 19.885 0 36.006-16.12 36.006-36.006 0-9.943-4.030-18.944-10.546-25.46l-57.060-57.040c-6.492-6.523-15.477-10.56-25.405-10.56-0.019 0-0.038 0-0.058 0h0.003zM177.46 77.48c-0.002 0-0.005 0-0.008 0-19.882 0-36 16.118-36 36 0 9.943 4.031 18.945 10.548 25.46l57.060 57.060c6.518 6.52 15.523 10.553 25.47 10.553 19.889 0 36.013-16.124 36.013-36.013 0-9.942-4.029-18.943-10.543-25.46l-57.080-57.080c-6.488-6.499-15.457-10.52-25.366-10.52-0.033 0-0.066 0-0.1 0h0.005zM846.64 77.48c-0.008 0-0.018 0-0.028 0-9.929 0-18.919 4.020-25.432 10.521l-57.039 57.059c-6.522 6.517-10.556 15.522-10.556 25.47 0 19.885 16.12 36.006 36.006 36.006 9.938 0 18.935-4.026 25.45-10.536l57.060-57.060c6.517-6.515 10.548-15.517 10.548-25.46 0-19.882-16.118-36-36-36-0.003 0-0.006 0-0.009 0v0zM234.38 689.74c-0.016 0-0.035 0-0.055 0-9.928 0-18.913 4.037-25.404 10.559l-57.061 57.041c-6.516 6.516-10.546 15.517-10.546 25.46 0 19.885 16.12 36.006 36.006 36.006 9.943 0 18.944-4.030 25.46-10.546l57.040-57.060c6.517-6.515 10.548-15.517 10.548-25.46 0-19.878-16.111-35.993-35.988-36h-0.001zM985.38 412.64h-80.68c-19.882 0-36 16.118-36 36s16.118 36 36 36v0h80.68c19.882 0 36-16.118 36-36s-16.118-36-36-36v0zM119.42 412.64h-80.68c-19.882 0-36 16.118-36 36s16.118 36 36 36v0h80.68c19.882 0 36-16.118 36-36s-16.118-36-36-36v0z" />
<glyph unicode="&#xe90d;" glyph-name="Ikoner_regular-outline_star" horiz-adv-x="1078" d="M864.48-48.26l-325.28 221.34-325.2-221.34 110 377.78-311.16 240.98 393.28 12.14 133.080 370.26 133.060-370.26 393.28-12.14-311.020-240.98zM539.2 260.16l200.16-136.16-67.68 232.42 191.4 148.3-242 7.46-81.88 227.82-82-227.84-242-7.46 191.4-148.3-67.58-232.4z" />
<glyph unicode="&#xe90e;" glyph-name="Ikoner_regular-outline_smiley-sad" d="M512-56.76c-276.694 0-500.999 224.306-500.999 501 0 138.347 56.076 263.597 146.739 354.26v0c90.856 91.847 216.902 148.724 356.234 148.724 276.695 0 501-224.305 501-501 0-139.326-56.873-265.369-148.669-356.18l-0.044-0.044c-90.17-90.656-214.998-146.762-352.93-146.762-0.468 0-0.936 0.001-1.403 0.002h0.073zM512 873.24c-0.001 0-0.002 0-0.002 0-236.93 0-429-192.070-429-429 0-118.461 48.014-225.707 125.643-303.341l-0.001 0.001c77.634-77.634 184.884-125.652 303.35-125.652 236.931 0 429.002 192.071 429.002 429.002 0 118.466-48.018 225.716-125.652 303.35v0c-77.207 77.611-184.083 125.642-302.177 125.642-0.409 0-0.817-0.001-1.226-0.002h0.063zM316.42 229.16c-19.874 0.011-35.981 16.125-35.981 36 0 8.216 2.752 15.788 7.384 21.847l-0.064-0.087c8.7 11.46 88.92 112 224.24 112 56.86 0 113.080-18.7 162.6-54 23.51-16.708 43.793-35.803 61.191-57.326l0.449-0.574c4.564-5.97 7.312-13.539 7.312-21.75 0-19.884-16.119-36.002-36.002-36.002-11.673 0-22.048 5.555-28.626 14.165l-0.064 0.087c-0.64 0.84-64.54 83.48-166.86 83.48-100.58 0-160.38-75-166.86-83.56-6.641-8.713-17.025-14.28-28.71-14.28-0.004 0-0.007 0-0.011 0h0.001zM432.9 583.54c0-27.327-22.153-49.48-49.48-49.48s-49.48 22.153-49.48 49.48c0 27.327 22.153 49.48 49.48 49.48s49.48-22.153 49.48-49.48zM690.060 583.54c0-27.327-22.153-49.48-49.48-49.48s-49.48 22.153-49.48 49.48c0 27.327 22.153 49.48 49.48 49.48s49.48-22.153 49.48-49.48z" />
<glyph unicode="&#xe90f;" glyph-name="Ikoner_regular-outline_smiley-happy" d="M510.82-56.76c-276.694 0-500.999 224.306-500.999 501 0 138.347 56.076 263.597 146.739 354.26v0c90.856 91.847 216.902 148.724 356.234 148.724 276.695 0 501-224.305 501-501 0-139.326-56.873-265.369-148.669-356.18l-0.044-0.044c-90.17-90.656-214.998-146.762-352.93-146.762-0.468 0-0.936 0.001-1.403 0.002h0.073zM510.82 873.24c-0.001 0-0.002 0-0.002 0-236.93 0-429-192.070-429-429 0-118.461 48.014-225.707 125.643-303.341l-0.001 0.001c77.634-77.634 184.884-125.652 303.35-125.652 236.931 0 429.002 192.071 429.002 429.002 0 118.466-48.018 225.716-125.652 303.35v0c-77.207 77.611-184.083 125.642-302.177 125.642-0.409 0-0.817-0.001-1.226-0.002h0.063zM510.82 229.16c-56.86 0-113.080 18.7-162.6 54.1-23.515 16.701-43.799 35.797-61.191 57.326l-0.449 0.574c-4.558 5.969-7.302 13.534-7.302 21.74 0 19.889 16.123 36.012 36.012 36.012 11.683 0 22.066-5.563 28.646-14.185l0.064-0.087c0.64-0.82 64.54-83.48 166.86-83.48 100.58 0 160.38 75.020 166.86 83.56 6.642 8.698 17.017 14.252 28.69 14.252 19.884 0 36.002-16.119 36.002-36.002 0-8.211-2.749-15.78-7.376-21.837l0.064 0.087c-8.74-11.48-88.94-112.060-224.28-112.060zM431.72 583.54c0-27.327-22.153-49.48-49.48-49.48s-49.48 22.153-49.48 49.48c0 27.327 22.153 49.48 49.48 49.48s49.48-22.153 49.48-49.48zM688.88 583.54c0-27.327-22.153-49.48-49.48-49.48s-49.48 22.153-49.48 49.48c0 27.327 22.153 49.48 49.48 49.48s49.48-22.153 49.48-49.48z" />
<glyph unicode="&#xe910;" glyph-name="Ikoner_regular-outline_fast-truck" horiz-adv-x="1327" d="M1311.4 426.22l-120.9 221.36h-193.040v228.58h-756.66v-95.34c0-19.882 16.118-36 36-36s36 16.118 36 36v0 23.34h612.66v-549.3c-6.504-9.007-12.255-19.279-16.771-30.192l-0.369-1.008h-227.020c-23.11 56.301-77.509 95.229-141 95.229s-117.89-38.927-140.632-94.217l-0.368-1.012h-86.5v163.34c0 19.882-16.118 36-36 36s-36-16.118-36-36v0-235.34h148.3c7.973-77.159 72.639-136.819 151.24-136.819s143.267 59.66 151.185 136.168l0.055 0.651h206.42c8.021-77.113 72.664-136.72 151.23-136.72s143.209 59.607 151.175 136.065l0.055 0.655h110.94zM540.34 86.88c-44.183 0-80 35.817-80 80s35.817 80 80 80c44.183 0 80-35.817 80-80v0c0-44.183-35.817-80-80-80v0zM1049.28 86.88c-44.183 0-80 35.817-80 80s35.817 80 80 80c44.183 0 80-35.817 80-80v0c0-44.183-35.817-80-80-80v0zM1239.4 223.66h-49.18c-23.075 56.294-77.45 95.222-140.916 95.222-18.602 0-36.423-3.344-52.894-9.464l1.051 0.342v265.82h150.34l91.6-167.74zM403.42 701.040c0 19.882-16.118 36-36 36v0h-316.28c-19.882 0-36-16.118-36-36s16.118-36 36-36v0h316.28c19.882 0 36 16.118 36 36v0zM403.42 582.76c0 19.882-16.118 36-36 36v0h-254.76c-19.882 0-36-16.118-36-36s16.118-36 36-36v0h254.76c19.882 0 36 16.118 36 36v0zM403.42 464.5c0 19.882-16.118 36-36 36v0h-193.22c-19.882 0-36-16.118-36-36s16.118-36 36-36v0h193.22c19.882 0 36 16.118 36 36v0z" />
<glyph unicode="&#xe911;" glyph-name="Rectangle-70" horiz-adv-x="1638" d="M54.613 809.813c34.133-47.787 109.227-225.28 157.013-395.947 122.88-443.733 163.84-477.867 607.573-477.867s484.693 34.133 607.573 477.867c47.787 170.667 122.88 348.16 157.013 395.947 47.787 54.613 47.787 81.92-6.827 81.92-40.96 0-129.707-184.32-191.147-409.6l-122.88-409.6h-907.947l-47.787 245.76c-54.613 314.027-177.493 573.44-259.413 573.44-40.96 0-34.133-34.133 6.827-81.92z" />
<glyph unicode="&#xe912;" glyph-name="Ikoner_regular-outline_settings" d="M512 284.4c-90.354 0-163.6 73.246-163.6 163.6s73.246 163.6 163.6 163.6c90.354 0 163.6-73.246 163.6-163.6v0c-0.103-90.312-73.287-163.497-163.59-163.6h-0.010zM512 539.255c-50.399 0-91.255-40.856-91.255-91.255s40.856-91.255 91.255-91.255c50.399 0 91.255 40.856 91.255 91.255v0c-0.057 50.376-40.879 91.198-91.249 91.255h-0.006zM608.902-55.399h-193.904l-12.057 143.765c-26.233 8.040-48.824 17.661-70.15 29.307l1.945-0.972-110.105-93.164-137.174 137.093 93.244 110.085c-10.685 19.417-20.306 42.050-27.632 65.692l-0.703 2.634-143.765 12.057v193.904l143.765 12.057c8.028 26.227 17.649 48.819 29.303 70.14l-0.968-1.935-93.244 110.185 137.174 137.174 110.185-93.244c19.382 10.677 41.973 20.298 65.572 27.63l2.633 0.705 12.057 143.765h193.824l12.057-143.765c26.279-8.057 48.91-17.697 70.272-29.369l-1.946 0.974 110.185 93.224 136.993-137.174-93.244-110.185c10.665-19.377 20.285-41.967 27.626-65.561l0.709-2.644 143.765-12.057v-194.005l-143.765-12.057c-8.027-26.216-17.62-48.788-29.23-70.102l0.976 1.957 93.164-110.085-137.093-137.093-110.085 93.164c-19.412-10.672-42.044-20.293-65.681-27.628l-2.644-0.707zM481.495 16.946h60.85l10.791 129.296 25.944 5.908c35.849 8.258 67.479 21.824 95.85 40.027l-1.199-0.72 22.427 14.168 99.132-83.88 43.025 43.025-83.88 99.132 14.188 22.427c17.441 27.152 30.979 58.755 38.829 92.539l0.398 2.031 5.848 25.883 129.296 10.791v60.85l-129.296 10.791-5.848 25.883c-8.262 35.842-21.828 67.464-40.027 95.83l0.72-1.199-14.168 22.427 83.88 99.132-42.965 43.045-99.132-83.9-22.427 14.188c-27.173 17.472-58.803 31.031-92.619 38.89l-2.032 0.398-25.863 5.848-10.791 129.296h-60.85l-10.791-129.296-25.883-5.848c-35.841-8.265-67.463-21.823-95.834-40.009l1.203 0.722-22.427-14.067-99.132 83.779-43.045-43.045 83.9-99.132-14.188-22.427c-17.468-27.168-31.027-58.79-38.889-92.599l-0.398-2.032-5.848-25.883-129.296-10.791v-60.85l129.296-10.791 5.848-25.883c8.266-35.842 21.832-67.464 40.028-95.831l-0.72 1.2 14.067-22.427-83.799-99.132 43.045-43.025 99.132 83.88 22.427-14.188c27.169-17.451 58.793-30.991 92.602-38.831l2.029-0.396 25.883-5.848zM979.146 384.296v0z" />
<glyph unicode="&#xe913;" glyph-name="Ikoner_regular-outline_search" d="M1002.86 8.46l-206.12 206.12c65.765 77.179 105.772 178.058 105.772 288.281 0 246.175-199.565 445.74-445.74 445.74-122.882 0-234.151-49.725-314.782-130.151l0.009 0.009c-80.584-80.65-130.422-192.032-130.422-315.054 0-246.175 199.565-445.74 445.74-445.74 110.343 0 211.322 40.095 289.162 106.51l-0.62-0.516 206.14-206.12c6.534-6.636 15.616-10.747 25.657-10.747 19.882 0 36 16.118 36 36 0 10.047-4.115 19.132-10.752 25.662l-0.005 0.005zM83.4 503.28c0 206 167.66 373.72 373.74 373.72s373.72-167.66 373.72-373.72-167.66-373.72-373.72-373.72-373.74 167.64-373.74 373.72z" />
<glyph unicode="&#xe914;" glyph-name="Ikoner_regular-outline_rocket" d="M877.080 179.76c-4 111.4-47.46 193.38-126.16 238 3.959 29.748 6.219 64.143 6.219 99.066 0 6.552-0.080 13.085-0.238 19.599l0.019-0.965c-2.92 111.3-37.66 208.66-103.4 289.42-54.42 66.82-114.88 102.96-137.64 116.58l-18.46 11.040-18.48-11.040c-22.76-13.62-83.22-49.76-137.62-116.58-65.76-80.76-100.54-178.12-103.44-289.42-0.137-5.501-0.215-11.98-0.215-18.477 0-34.936 2.259-69.344 6.637-103.087l-0.422 3.983c-78.56-44.5-122.12-126.48-126.12-238-2.94-82 16.8-152.92 18.64-159.26v0l22.56-75.64 190.48 133.26c6-11.54 9.84-18.46 10.68-20l10.36-18.1h90.94v-59.62c0-19.882 16.118-36 36-36s36 16.118 36 36v0 59.66h90.92l10.38 18.1c0.84 1.48 4.72 8.34 10.6 19.84l190.32-133.14 22.58 75.56c0.22 0.72 21.78 74 18.86 159.22zM497.42 868.24c38.635-24.93 71.689-54.346 99.686-88.107l0.574-0.713c0.079-0.12 0.165-0.225 0.26-0.32v0h-201.040l0.24 0.32c28.572 34.479 61.633 63.896 98.594 87.799l1.686 1.021zM200.4 61.84c-11.66 54.76-33.4 204.42 56.58 278 16.311-74.87 37.549-140.135 64.419-202.4l-2.719 7.080zM533.42 112.18v275.56c0 19.882-16.118 36-36 36s-36-16.118-36-36v0-275.56h-48.36c-28 55.66-108.12 231.66-103.2 421.42 1.66 63.58 15.36 121.62 40.86 173.5h293.38c25.5-51.88 39.22-110 40.86-173.5 4.92-189.8-75.12-365.82-103.2-421.42zM794.24 61.8l-118.14 82.66c24.164 55.206 45.409 120.491 60.375 188.137l1.345 7.243c41.8-34 64.4-88 67.24-161.060 1.88-48.020-5.52-92.22-10.82-116.98zM497.42 701.82c-57.283 0-103.72-46.437-103.72-103.72s46.437-103.72 103.72-103.72c57.248 0 103.663 46.38 103.72 103.614v0.006c0 57.303-46.425 103.763-103.715 103.82h-0.005zM497.42 566.38c-17.518 0-31.72 14.202-31.72 31.72s14.202 31.72 31.72 31.72c17.518 0 31.72-14.202 31.72-31.72 0-0.035 0-0.070 0-0.105v0.005c-0.079-17.466-14.246-31.597-31.718-31.62h-0.002z" />
<glyph unicode="&#xe915;" glyph-name="Ikoner_regular-outline_return" d="M689.64 624.16h-547.64l152 152c6.642 6.535 10.757 15.621 10.757 25.667 0 19.882-16.118 36-36 36-10.042 0-19.123-4.111-25.653-10.743l-238.965-238.925 238.96-238.96c6.367-5.797 14.868-9.346 24.199-9.346 19.882 0 36 16.118 36 36 0 9.306-3.531 17.787-9.326 24.176l0.027-0.030-152 152h547.64c137.626-0.17 249.158-111.647 249.42-249.235v-216.025c0-19.882 16.118-36 36-36s36 16.118 36 36v0 216c0 177.26-144.2 321.42-321.42 321.42z" />
<glyph unicode="&#xe916;" glyph-name="remove-regular" d="M876.8 812.8c-12.8 12.8-38.4 12.8-51.2 0 0 0 0 0 0 0l-313.6-313.6-313.6 313.6c-16 12.8-38.4 12.8-51.2-3.2-12.8-12.8-12.8-35.2 0-48l313.6-313.6-313.6-313.6c-12.8-12.8-12.8-38.4 0-51.2s38.4-12.8 51.2 0l313.6 313.6 313.6-313.6c12.8-12.8 38.4-12.8 51.2 0s12.8 38.4 0 51.2l-313.6 313.6 313.6 313.6c12.8 16 12.8 38.4 0 51.2 0 0 0 0 0 0z" />
<glyph unicode="&#xe917;" glyph-name="Ikoner_regular-outline_question-circle" d="M546.86 262.82c0-19.253-15.607-34.86-34.86-34.86s-34.86 15.607-34.86 34.86c0 19.253 15.607 34.86 34.86 34.86s34.86-15.607 34.86-34.86zM512-53.28c-0.005 0-0.012 0-0.019 0-276.695 0-501 224.305-501 501 0 138.357 56.084 263.615 146.758 354.279l0.001 0.001c90.664 90.661 215.913 146.736 354.26 146.736 276.698 0 501.006-224.308 501.006-501.006 0-138.352-56.079-263.605-146.746-354.27v0c-90.155-90.644-214.965-146.742-352.877-146.742-0.486 0-0.972 0.001-1.458 0.002h0.075zM512 876.72c-0.001 0-0.002 0-0.002 0-236.93 0-429-192.070-429-429 0-118.471 48.022-225.725 125.662-303.36v0c77.781-78.54 185.642-127.17 304.86-127.17 236.93 0 429 192.070 429 429 0 119.224-48.634 227.088-127.146 304.836l-0.034 0.034c-77.2 77.622-184.076 125.662-302.172 125.662-0.411 0-0.821-0.001-1.231-0.002h0.063zM512 315.4c-19.882 0-36 16.118-36 36v0 113.48h36c55.26 0 100.22 34.5 100.22 76.9s-44.96 76.9-100.22 76.9-100.22-34.5-100.22-76.9c0-19.882-16.118-36-36-36s-36 16.118-36 36v0c0 82.1 77.26 148.9 172.22 148.9s172.22-66.8 172.22-148.9c0-71.42-58.48-131.26-136.22-145.62v-44.76c0-19.882-16.118-36-36-36v0z" />
<glyph unicode="&#xe918;" glyph-name="Ikoner_regular-outline_print" d="M980.24 709.24h-169.38v239.68h-597.72v-239.68h-169.38v-532.22h169.38v-230.1h597.72v230h169.38zM285.14 876.92h453.72v-167.68h-453.72zM738.86 18.92h-453.72v388.22h453.72zM908.24 248.92h-97.38v230.22h-597.72v-230.12h-97.38v388.22h792.48zM346.52 171.56h330.96c19.882 0 36 16.118 36 36s-16.118 36-36 36v0h-330.96c-19.882 0-36-16.118-36-36s16.118-36 36-36v0zM346.52 278.36h330.96c19.882 0 36 16.118 36 36s-16.118 36-36 36v0h-330.96c-19.882 0-36-16.118-36-36s16.118-36 36-36v0zM346.52 64.74h330.96c19.882 0 36 16.118 36 36s-16.118 36-36 36v0h-330.96c-19.882 0-36-16.118-36-36s16.118-36 36-36v0zM170.24 615.080c-0.006 0-0.013 0-0.020 0-19.264 0-34.88-15.616-34.88-34.88s15.616-34.88 34.88-34.88c19.264 0 34.88 15.616 34.88 34.88v0c0 0.006 0 0.013 0 0.020 0 19.253-15.607 34.86-34.86 34.86v0z" />
<glyph unicode="&#xe91c;" glyph-name="Ikoner_regular-outline_plus" d="M977 484h-429v429c0 19.882-16.118 36-36 36s-36-16.118-36-36v0-429h-429c-19.882 0-36-16.118-36-36s16.118-36 36-36v0h429v-429c0-19.882 16.118-36 36-36s36 16.118 36 36v0 429h429c19.882 0 36 16.118 36 36s-16.118 36-36 36v0z" />
<glyph unicode="&#xe91d;" glyph-name="Ikoner_regular-outline_piggy-save" horiz-adv-x="1037" d="M341.255 437.049c1.377-19.347-13.191-36.147-32.539-37.524s-36.147 13.191-37.524 32.539c-1.377 19.347 13.191 36.147 32.539 37.524s36.147-13.191 37.524-32.539zM639.86 552c-29.18 25.78-75.060 40.56-125.9 40.56s-96.72-14.68-125.96-40.56c-7.487-6.631-12.182-16.267-12.182-27 0-19.889 16.123-36.012 36.012-36.012 9.156 0 17.514 3.417 23.868 9.045l-0.038-0.033c15.48 13.68 46.18 22.52 78.22 22.52s62.74-8.84 78.22-22.52c6.318-5.599 14.68-9.019 23.84-9.019 19.893 0 36.019 16.126 36.019 36.019 0 10.732-4.694 20.368-12.141 26.967l-0.038 0.033zM514 717.64c65.965 0 119.44 53.475 119.44 119.44s-53.475 119.44-119.44 119.44c-65.965 0-119.44-53.475-119.44-119.44v0c0.091-65.928 53.512-119.349 119.431-119.44h0.009zM514 884.52c26.2 0 47.44-21.24 47.44-47.44s-21.24-47.44-47.44-47.44c-26.2 0-47.44 21.24-47.44 47.44v0c0.034 26.187 21.253 47.406 47.437 47.44h0.003zM1014.22 463.44c4.078 6.864 7.055 14.888 8.447 23.446l0.053 0.394c0.14 0.88 0.28 1.74 0.38 2.62v0c0.298 2.175 0.5 4.75 0.559 7.36l0.001 0.080c0 0.18 0 0.34 0 0.5v0.86c-0.034 37.154-30.161 67.261-67.32 67.261-35.449 0-64.498-27.399-67.126-62.175l-0.014-0.226c-22.669 38.968-50.7 72.047-83.575 99.524l-0.585 0.476c-78.78 66.22-182.62 102.68-292.38 102.68-0.326 0.001-0.713 0.001-1.099 0.001-69.703 0-135.887-15.070-195.47-42.128l2.969 1.207-55.74 18.68-100.24 33.34 5.56-105.52 3.020-57.18c-20.266-24.072-37.623-51.58-50.936-81.294l-0.884-2.206h-113.5v-256.46h112.34c20.52-48 52.48-91.74 94.1-128.48v-147.68h236.48v42.66c19.044-2.61 41.052-4.1 63.408-4.1 21.408 0 42.496 1.366 63.183 4.016l-2.451-0.256v-42.32h236.44v145.24c78.48 68.14 123 160.9 123 257.88 0 0.028 0 0.061 0 0.094 0 28.707-3.78 56.532-10.87 83.002l0.51-2.237c3.020 0 6 0.14 8.9 0.3 14-10.58 33.040-20.54 58.92-26.9 2.639-0.693 5.67-1.090 8.793-1.090 19.882 0 36 16.118 36 36 0 14.362-8.41 26.76-20.574 32.537l-0.218 0.093zM747.2 125.44l-9.36-7.18v-107.82h-92.44v59.44l-30-7.84c-30.831-8.233-66.228-12.962-102.73-12.962-37.424 0-73.688 4.971-108.166 14.289l2.895-0.666-30.14 8v-60.22h-92.48v109.9l-9.2 7.2c-49.26 38.54-84 87.66-100.38 142l-5.1 17.040h-91.76v112.52h92.4l5.26 16.86c11.86 38 32.5 73.080 61.34 104.42l7.8 8.48-4.58 86.76 83.6-27.9 11.36 5.68c53.52 26.72 114.78 40.82 177.2 40.82 192 0 348.14-131.26 348.14-292.58-0.020-81.96-41.44-160.74-113.66-216.16z" />
<glyph unicode="&#xe91e;" glyph-name="Ikoner_regular-outline_phone" d="M781.84-58.44v0c-0.136 0-0.296 0-0.456 0-105.091 0-205.297 20.914-296.682 58.808l5.139-1.888c-194.784 80.763-346.516 232.45-425.439 422.048l-1.901 5.152c-36.056 86.297-57 186.567-57 291.729 0 0.046 0 0.092 0 0.138v-0.007c-0.002 0.311-0.003 0.68-0.003 1.048 0 59.463 24.184 113.277 63.253 152.143l87.769 87.729 261.48-261.54-111.88-160.78c-0.286-0.39-0.458-0.88-0.458-1.41s0.172-1.020 0.463-1.417l-0.005 0.007c53.48-66.48 97.16-116.84 129.82-149.68l1.36-1.34c48.932-48.961 100.44-95.33 154.31-138.892l3.69-2.888c0.382-0.281 0.861-0.45 1.38-0.45s0.998 0.169 1.386 0.455l-0.006-0.005 162.58 113.6 261.6-261.56-87.76-87.7c-39.109-38.9-92.956-63.016-152.437-63.24h-0.143zM77.5 717.040c0.38-188 73.64-364.44 206.34-497.14 126.871-127.463 302.459-206.34 496.469-206.34 0.25 0 0.499 0 0.749 0h0.162c0.1 0 0.218 0 0.336 0 39.881 0 76.001 16.105 102.211 42.167l36.813 36.793-168 168-113.12-79.040c-11.887-8.346-26.657-13.337-42.593-13.337-17.634 0-33.84 6.112-46.616 16.332l0.149-0.115c-59.144 47.706-112.051 95.258-162.336 145.436l0.036-0.036-1.68 1.66c-34.62 34.58-80.42 87.4-136.28 156.78-10.162 12.655-16.309 28.912-16.309 46.604 0 15.876 4.95 30.595 13.39 42.699l-0.161-0.243 77.48 111.34-168 168-36.82-36.74c-26.046-25.918-42.165-61.792-42.165-101.43 0-0.425 0.002-0.85 0.006-1.275v0.065-0.18zM5.84 712.64v0zM77.22 722v0z" />
<glyph unicode="&#xe920;" glyph-name="Ikoner_regular-outline_pen" d="M4-59.24l60.84 290 727.46 727.48 229.1-229.1-727.52-727.52zM130.84 194.94l-33.8-161.060 161.080 33.8 661.46 661.46-127.28 127.26zM276 34.64v0z" />
<glyph unicode="&#xe921;" glyph-name="Ikoner_regular-outline_paperfly" d="M3.12 591.36l434.88-218.6 217.060-433.5 356.52 1006.9zM815.12 800.72l-357.32-357.3-271.040 136.24zM643.68 122.84l-135 269.62 356.82 356.82z" />
<glyph unicode="&#xe922;" glyph-name="Ikoner_regular-outline_package-front" horiz-adv-x="1053" d="M847.52 948h-640.98l-195.52-238v-764h1032v764zM241.26 876h571.6l136.92-166h-845.48zM453.26 638h147.58v-92l-147.58-24zM971.060 18h-888v620h298.2v-200.74l291.58 47.48v153.26h298.22z" />
<glyph unicode="&#xe923;" glyph-name="Ikoner_regular-outline_package-check" d="M940.86 346.12v407.48l-464.86 198.4-203.44-86.76c-1.696-0.613-3.075-1.213-4.412-1.886l0.232 0.106-257.44-109.86v-621.84l465.060-187.76 276.1 111.44c25.068-14.887 55.264-23.686 87.516-23.686 95.832 0 173.52 77.688 173.52 173.52 0 57.755-28.216 108.919-71.616 140.46l-0.5 0.346zM839.48 378.9c-0.024 0-0.052 0-0.080 0-95.81 0-173.48-77.67-173.48-173.48 0-35.524 10.677-68.554 28.998-96.055l-0.398 0.635-182.52-73.78v488.68l208.92 88.18c5.032 1.041 9.481 2.981 13.384 5.66l-0.124-0.080 134.78 56.88v-299.14c-8.819 1.591-18.97 2.5-29.334 2.5-0.051 0-0.103 0-0.154 0h0.008zM284.9 792.22l335.74-143.28-144.64-61.080-336.9 142.14zM812.72 730l-99.84-42.12-336.26 143.48 99.38 42.38zM82.94 675.54l357.060-150.64v-488.68l-357.060 144.12zM839.48 103.74c-56.101 0-101.58 45.479-101.58 101.58s45.479 101.58 101.58 101.58c56.101 0 101.58-45.479 101.58-101.58v0c-0.068-56.074-45.506-101.512-101.574-101.58h-0.006zM862.2 262.14l-37.28-37.28-8.16 8.18c-6.534 6.636-15.616 10.747-25.657 10.747-19.882 0-36-16.118-36-36 0-10.047 4.115-19.132 10.752-25.662l59.065-59.085 88.2 88.2c6.636 6.534 10.747 15.616 10.747 25.657 0 19.882-16.118 36-36 36-10.047 0-19.132-4.115-25.662-10.752l-0.005-0.005z" />
<glyph unicode="&#xe924;" glyph-name="Ikoner_regular-outline_package" d="M976.82 131.74v621.86l-464.96 198.4-203.34-86.76c-1.659-0.588-3.039-1.196-4.366-1.889l0.186 0.089-257.44-109.84v-621.84l464.96-187.7 13.88 5.62h0.2zM320.82 792.22l335.78-143.28-144.74-61.080-336.8 142.14zM547.82 36.22v488.68l208.98 88.18c5.025 1.041 9.468 2.981 13.363 5.66l-0.123-0.080 134.78 56.88v-495.22zM848.68 730l-99.84-42.12-336.24 143.48 99.26 42.38zM118.9 675.54l356.96-150.64v-488.68l-356.96 144.12z" />
<glyph unicode="&#xe925;" glyph-name="Ikoner_regular-outline_needle" d="M641.76 957.68l-169.52-169.52 39.88-39.88-170.28-124.28-83 83.020-169.52-169.56 176.96-176.96-224.92-224.94-33.6-193.040 193.040 33.6 224.94 224.94 176.96-177.060 169.52 169.52-83 83 124.3 170.28 39.88-39.8 169.5 169.56zM166 43.14l-69.76-12.14 12.14 69.78 208.82 208.82 57.62-57.6zM602.7 126l-411.56 411.46 67.7 67.72 411.56-411.58zM637.7 328.22l-244.34 244.24 170.28 124.3 198.36-198.36zM853.38 508.92l-279.38 279.24 67.7 67.7 279.38-279.3z" />
<glyph unicode="&#xe926;" glyph-name="Ikoner_regular-outline_multiple-package" horiz-adv-x="1267" d="M963.52 484v422.16h-657.82v-422.16h-292.9v-494.16h1243.62v494.16zM896.52 412h62v-30.14l-62-10.1zM603.62 834.16h62v-30.16l-62-10zM377.62 834.16h154v-124.92l206 33.54v91.38h154v-350.16h-513.92zM310.72 412h62v-30.14l-62-10.1zM598.6 61.84h-513.8v350.16h154v-124.92l206 33.54v91.38h154zM1184.42 61.84h-513.82v350.16h154v-124.92l206 33.54v91.38h154z" />
<glyph unicode="&#xe928;" glyph-name="Ikoner_regular-outline_moon" d="M528.82 13.080c-248 0-449.72 201.76-449.72 449.74 0 172.62 101.16 332 257.72 406.22l126.46 59.88-59.86-126.46c-21.349-43.645-33.84-94.971-33.86-149.213v-0.007c0-192.84 156.86-349.72 349.68-349.72 54.263 0.027 105.601 12.517 151.317 34.763l-2.057-0.903 126.46 59.76-59.88-126.38c-74.14-156.52-233.6-257.68-406.26-257.68zM315.38 773.88c-101.38-69.88-164.28-186.34-164.28-311.060 0-208.28 169.44-377.74 377.72-377.74 124.74 0 241.32 62.92 311.1 164.28-36.010-11.319-77.42-17.84-120.353-17.84-0.115 0-0.23 0-0.345 0h0.018c-232.52 0-421.68 189.18-421.68 421.72 0 0.096 0 0.21 0 0.324 0 42.918 6.514 84.316 18.607 123.257l-0.787-2.94z" />
<glyph unicode="&#xe929;" glyph-name="Ikoner_regular-outline_minus" d="M977 412h-930c-19.882 0-36 16.118-36 36s16.118 36 36 36v0h930c19.882 0 36-16.118 36-36s-16.118-36-36-36v0z" />
<glyph unicode="&#xe92a;" glyph-name="Ikoner_regular-outline_map" horiz-adv-x="1181" d="M996 610.12h-171.44c8.45 23.998 13.428 51.673 13.639 80.482l0.001 0.098c0 143.506-116.334 259.84-259.84 259.84s-259.84-116.334-259.84-259.84v0c0.212-28.907 5.19-56.582 14.184-82.373l-0.544 1.793h-171.34l-141.56-661.58h1118.1zM651.3 20.54l-105.3 105.24 422.5 268.22 79.84-373.46zM578.36 878.54c103.704-0.091 187.749-84.135 187.84-187.831v-0.009c0-41.78-17.5-109.9-100.92-197.12-26.493-27.436-54.876-52.623-85.095-75.515l-1.825-1.325c-32.044 24.217-60.427 49.404-86.716 76.628l-0.204 0.212c-83.4 87.22-100.92 155.34-100.92 197.12 0.091 103.704 84.135 187.749 187.831 187.84h0.009zM366 538.12c68-112.34 185.62-191.14 192.56-195.72l19.84-13.1 19.84 13.1c6.94 4.58 124.62 83.38 192.56 195.72h146.92l14.76-69.040-458.48-291.080-290 289.78 15.040 70.28zM186 384l363.48-363.46h-441.18zM578.36 586c65.865 0 119.26 53.395 119.26 119.26s-53.395 119.26-119.26 119.26c-65.865 0-119.26-53.395-119.26-119.26v0c0.080-65.833 53.426-119.18 119.252-119.26h0.008zM578.36 752.52c26.101 0 47.26-21.159 47.26-47.26s-21.159-47.26-47.26-47.26c-26.101 0-47.26 21.159-47.26 47.26v0c0.080 26.053 21.201 47.146 47.257 47.18h0.003z" />
<glyph unicode="&#xe92b;" glyph-name="Ikoner_regular-outline_long-arrow-up" d="M714 754.44l-202 202.020-202-202c-6.394-6.494-10.343-15.412-10.343-25.253 0-19.882 16.118-36 36-36 9.836 0 18.75 3.944 25.248 10.338l115.095 115.095v-843.1c0-19.882 16.118-36 36-36s36 16.118 36 36v0 843.1l115.12-115.12c6.454-6.186 15.229-9.995 24.894-9.995 19.882 0 36 16.118 36 36 0 9.675-3.817 18.458-10.026 24.927l0.012-0.012z" />
<glyph unicode="&#xe92c;" glyph-name="Ikoner_regular-outline_long-arrow-right" d="M820 637.12c-6.564 6.843-15.783 11.095-25.995 11.095-19.882 0-36-16.118-36-36 0-10.212 4.252-19.432 11.083-25.983l0.013-0.012 115.1-115.12h-843.080c-19.882 0-36-16.118-36-36s16.118-36 36-36v0h843.080l-115.1-115.1c-6.642-6.535-10.757-15.621-10.757-25.667 0-19.882 16.118-36 36-36 10.042 0 19.123 4.111 25.653 10.743l202.005 202.005z" />
<glyph unicode="&#xe92d;" glyph-name="Ikoner_regular-outline_long-arrow-left" d="M982.72 471.32h-843.1l115.12 115.1c6.516 6.516 10.546 15.517 10.546 25.46 0 19.885-16.12 36.006-36.006 36.006-9.943 0-18.944-4.030-25.46-10.546l-202-202 202-202c6.535-6.642 15.621-10.757 25.667-10.757 19.882 0 36 16.118 36 36 0 10.042-4.111 19.123-10.743 25.653l-115.125 115.085h843.1c19.882 0 36 16.118 36 36s-16.118 36-36 36v0z" />
<glyph unicode="&#xe92e;" glyph-name="Ikoner_regular-outline_long-arrow-down" d="M714 192.48c-6.514 6.511-15.512 10.538-25.45 10.538s-18.936-4.027-25.45-10.538l-115.1-115.12v843.1c0 19.882-16.118 36-36 36s-36-16.118-36-36v0-843.1l-115.1 115.12c-6.493 6.388-15.407 10.333-25.243 10.333-19.882 0-36-16.118-36-36 0-9.841 3.948-18.759 10.347-25.257l201.995-201.995 202 202c6.517 6.515 10.548 15.517 10.548 25.46s-4.031 18.945-10.548 25.46v0z" />
<glyph unicode="&#xe92f;" glyph-name="Ikoner_regular-outline_lock" d="M786 610.82v90.82c0 136.613-110.747 247.36-247.36 247.36s-247.36-110.747-247.36-247.36v0-90.82h-126.9v-663.82h748.36v663.82zM363.2 701.64c0 96.849 78.511 175.36 175.36 175.36s175.36-78.511 175.36-175.36v0-90.82h-350.72zM840.74 19h-604.36v519.82h604.36zM538.56 374.94c-0.002 0-0.004 0-0.006 0-32.441 0-58.74-26.299-58.74-58.74 0-18.82 8.85-35.572 22.616-46.322l0.13-0.098v-50.9c0-19.882 16.118-36 36-36s36 16.118 36 36v0 50.9c13.896 10.848 22.746 27.6 22.746 46.42 0 32.441-26.299 58.74-58.74 58.74-0.002 0-0.004 0-0.006 0v0z" />
<glyph unicode="&#xe930;" glyph-name="Ikoner_regular-outline_location" d="M512 377.12c-98.771 0-178.84 80.069-178.84 178.84s80.069 178.84 178.84 178.84c98.757 0 178.817-80.047 178.84-178.798v-0.002c-0.091-98.742-80.101-178.766-178.829-178.88h-0.011zM512 662.78c-59.006 0-106.84-47.834-106.84-106.84s47.834-106.84 106.84-106.84c59.006 0 106.84 47.834 106.84 106.84 0 0.021 0 0.042 0 0.063v-0.003c-0.102 58.953-47.882 106.712-106.833 106.78h-0.007zM512-58l-19.84 13.1c-4 2.68-100.46 66.76-198.12 168.42-58 60.26-104.16 121.32-137.52 181.44-42.82 77.16-64.52 153.26-64.52 226.16 0 231.6 188.4 420 420 420s420-188.4 420-420c0-72.9-21.7-149-64.52-226.18-33.36-60.12-79.62-121.18-137.52-181.44-97.66-101.66-194-165.74-198.12-168.42zM512 879.14c-191.88 0-348-156.1-348-348 0-139.14 98.94-271.34 182-357.76 50.252-51.88 104.485-99.224 162.446-141.79l3.554-2.49c76.46 55.54 348 269.26 348 502 0 191.92-156.12 348.020-348 348.020z" />
<glyph unicode="&#xe931;" glyph-name="Ikoner_regular-outline_list" d="M489.7 469.88h-478.7v478.28h478.7zM83 541.88h334.7v334.28h-334.7zM489.7-53.2h-478.7v478.28h478.7zM83 18.8h334.7v334.28h-334.7zM1013 208h-479v217.080h479zM606 280h335v73h-335zM1013-52.18h-479v217h479zM606 19.82h335v73h-335zM1013 730.64h-479v217.020h479zM606 802.64h335v73.020h-335zM1013 470.38h-479v217.020h479zM606 542.38h335v73.020h-335z" />
<glyph unicode="&#xe932;" glyph-name="Ikoner_regular-outline_leaf" d="M788.74 502.58c0 233.24-262.74 427.16-273.88 435.3l-21.18 15.42-21.2-15.42c-11.18-8.14-273.86-202-273.86-435.3 0-164 113.28-299.86 259.060-319.28v-204.52c0-19.882 16.118-36 36-36s36 16.118 36 36v204.52c145.78 19.42 259.060 155.18 259.060 319.28zM529.68 256.16v54l130.32 130.32c6.516 6.516 10.546 15.517 10.546 25.46 0 19.885-16.12 36.006-36.006 36.006-9.943 0-18.944-4.030-25.46-10.546l-79.4-79.4v50.92l81.74 81.76c6.843 6.564 11.095 15.783 11.095 25.995 0 19.882-16.118 36-36 36-10.212 0-19.432-4.252-25.983-11.083l-0.012-0.013-30.84-30.84v62.64c0 19.882-16.118 36-36 36s-36-16.118-36-36v0-62.64l-30.84 30.84c-6.392 5.902-14.968 9.521-24.39 9.521-19.882 0-36-16.118-36-36 0-9.436 3.631-18.025 9.571-24.445l-0.022 0.024 81.76-81.76v-50.92l-79.44 79.4c-6.493 6.388-15.407 10.333-25.243 10.333-19.882 0-36-16.118-36-36 0-9.841 3.948-18.759 10.347-25.257l130.255-130.255v-54c-106 19.32-187.060 122.46-187.060 246.42 0 161.64 163.66 311.34 223.060 360.34 59.4-49.020 223.060-198.72 223.060-360.34 0-124.020-81.12-227.16-187.060-246.48z" />
<glyph unicode="&#xe933;" glyph-name="Ikoner_regular-outline_laptop" horiz-adv-x="1327" d="M1256 142.5h-53.6v683h-1077.42v-683h-53.58c-19.882 0-36-16.118-36-36s16.118-36 36-36v0h1184.6c19.882 0 36 16.118 36 36s-16.118 36-36 36v0zM196.94 142.5v611h933.5v-611z" />
<glyph unicode="&#xe934;" glyph-name="Ikoner_regular-outline_key" d="M746.58 590.28c-49.307 0.046-89.26 40.027-89.26 89.34 0 49.341 39.999 89.34 89.34 89.34s89.34-39.999 89.34-89.34v0c-0.057-49.346-40.067-89.329-89.419-89.34h-0.001zM746.58 696.96c-9.577 0-17.34-7.763-17.34-17.34s7.763-17.34 17.34-17.34c9.577 0 17.34 7.763 17.34 17.34v0c-0.011 9.572-7.768 17.329-17.339 17.34h-0.001zM10.84-55.6l17.16 235.6c3.353 23.399 14.008 43.854 29.543 59.443l287.997 287.997c-27.72 114.38 6.26 238.56 89.62 321.92 132.6 132.54 348.42 132.54 481.1 0v0c132.6-132.64 132.6-348.48 0-481.12-83.42-83.42-207.6-117.4-321.76-89.58l-42.8-42.78h-38v-73.88h-73.7v-73.82h-73.8v-38l-59.76-59.58c-15.581-15.517-36.019-26.167-58.835-29.473l-0.565-0.067-2.42-0.24zM99.44 171.16l-10.78-149.16 149.48 10.5c6.844 1.208 12.793 4.412 17.381 8.981l38.619 38.599v80.18h73.86v73.74h73.8v73.8h80.2l52 52 20.84-6.6c94.48-29.88 200.68-4 270.58 65.86 104.54 104.56 104.54 274.72 0 379.28s-274.82 104.58-379.42 0.1c-69.82-69.82-95.68-176-65.84-270.62l6.58-20.84-318.32-318.36c-4.544-4.631-7.741-10.598-8.95-17.258l-0.030-0.202z" />
<glyph unicode="&#xe935;" glyph-name="Ikoner_regular-outline_iphone" d="M571.12 146.76c-0.006 0-0.013 0-0.020 0-28.619 0-51.82-23.201-51.82-51.82s23.201-51.82 51.82-51.82c28.619 0 51.82 23.201 51.82 51.82v0c0 28.612-23.189 51.809-51.799 51.82h-0.001zM278.56 947.24v-1002h583.74v1002zM790.3 17.24h-439.74v858h88.56c0-19.882 16.118-36 36-36v0h192c19.882 0 36 16.118 36 36v0h87.2z" />
<glyph unicode="&#xe936;" glyph-name="Ikoner_regular-outline_house" horiz-adv-x="1053" d="M1031.52 580.78l-504.64 373.86-504.66-373.86c-8.883-6.632-14.573-17.117-14.573-28.93 0-19.884 16.119-36.003 36.003-36.003 8.070 0 15.521 2.655 21.525 7.14l-0.095-0.068 30.92 22.86v-602h350.16v420.22h161.42v-420.16h350.24v602l30.84-22.86c5.909-4.417 13.36-7.073 21.43-7.073 19.884 0 36.003 16.119 36.003 36.003 0 11.813-5.69 22.298-14.478 28.862l-0.095 0.068zM885.82 15.84h-206.24v420.16h-305.42v-420.16h-206.16v583.3l358.94 266 358.94-266z" />
<glyph unicode="&#xe937;" glyph-name="Ikoner_regular-outline_heart" d="M512-24.92l-19.78 12.92c-12.44 8.28-305.72 202.7-426.22 411.12-34.675 56.135-55.221 124.183-55.221 197.031 0 60.353 14.102 117.412 39.192 168.061l-0.991-2.212 0.56 1.14c32.977 61.63 86.042 108.885 150.283 133.637l1.957 0.663 0.62 0.24c52.22 20 112 21.44 168.18 4.2 32.2-9.88 80.22-30.38 141.42-93.88 61.12 63.56 109.18 84 141.44 94 56.2 17.24 116 15.76 168.16-4.2l0.64-0.24c66.189-25.423 119.244-72.676 151.47-132.769l0.75-1.531 0.56-1.14c24.118-48.455 38.233-105.537 38.233-165.916 0-72.87-20.559-140.938-56.192-198.72l0.939 1.636c-120.5-208.42-413.78-402.84-426.22-411.12zM113.5 730c-19.36-39.117-30.686-85.172-30.686-133.873 0-59.22 16.748-114.528 45.766-161.446l-0.759 1.319 0.4-0.7c94.64-164 316.34-326.56 383.78-373.66 67.44 47.1 289.14 209.64 383.78 373.66l0.4 0.7c28.258 45.599 45.006 100.908 45.006 160.127 0 48.701-11.327 94.756-31.489 135.675l0.803-1.803c-24.729 45.869-64.332 81.037-112.234 99.503l-1.466 0.497-0.8 0.4c-37.32 14.26-80.42 15.18-121.38 2.62-44.9-13.76-87.8-46.22-135.040-102.12l-27.58-32.52-27.5 32.5c-47.32 56-90.22 88.38-135.060 102.14-40.96 12.56-84 11.64-121.38-2.62l-0.72-0.28c-49.436-18.972-89.092-54.186-113.278-98.982l-0.562-1.138z" />
<glyph unicode="&#xe938;" glyph-name="Ikoner_regular-outline_grid" d="M316 643.14h-305.38v305.28h305.38zM82.68 715.14h161.32v161.28h-161.38zM664.32 643.14h-305.42v305.28h305.42zM430.9 715.14h161.42v161.28h-161.42zM1012.62 643.14h-305.36v305.28h305.36zM779.26 715.14h161.36v161.28h-161.36zM316 294.78h-305.38v305.22h305.38zM82.68 366.78h161.32v161.22h-161.38zM664.32 294.78h-305.42v305.22h305.42zM430.9 366.78h161.42v161.22h-161.42zM1012.62 294.78h-305.36v305.22h305.36zM779.26 366.78h161.36v161.22h-161.36zM316-53.46h-305.38v304.46h305.38zM82.68 18.54h161.32v160.46h-161.38zM664.32-53.46h-305.42v304.46h305.42zM430.9 18.54h161.42v160.46h-161.42zM1012.62-53.46h-305.36v304.46h305.36zM779.26 18.54h161.36v160.46h-161.36z" />
<glyph unicode="&#xe939;" glyph-name="Ikoner_regular-outline_gift-card" horiz-adv-x="1140" d="M8 819.38v-742.76h1124v742.76zM1060 484h-434.36c15.76 20.74 24.36 44.32 24.36 67.82 0.002 0.201 0.003 0.438 0.003 0.676 0 27.689-12.768 52.395-32.737 68.554l-0.166 0.13c-41.7 34.18-111.44 31.6-164.22-4.36v130.56h607.12zM255.8 551.82c-0.004 0.143-0.007 0.311-0.007 0.48 0 5.368 2.551 10.14 6.507 13.171l0.040 0.029c6.34 5.2 16.28 8 27.74 8 21.683-0.446 41.454-8.284 56.978-21.086l-0.158 0.126c21.64-17.74 29.72-45.88 32.56-67.86-5.76 0.34-12 0.84-18.54 1.6-36.7 4.26-65.3 14-82.7 28.32-16.52 13.4-22.42 28.060-22.42 37.22zM454.4 484.56c2.84 22 10.9 50.18 32.58 68 15.355 12.684 35.122 20.524 56.706 20.959l0.094 0.001c11.48 0 21.4-2.74 27.76-8 3.985-3.068 6.527-7.839 6.527-13.204 0-0.167-0.002-0.334-0.007-0.5l0.001 0.024c0-9.16-5.88-23.76-22.4-37.28-25.22-20.68-68.6-28.020-101.26-30zM380.94 747.38v-130.56c-52.8 36-122.52 38.54-164.24 4.36-20.136-16.3-32.902-41.015-32.902-68.713 0-0.228 0.001-0.455 0.003-0.682v0.035c0-23.5 8.68-47.080 24.42-67.82h-128.22v263.38zM80 412h255.6l-56.82-56.82c-6.642-6.535-10.757-15.621-10.757-25.667 0-19.882 16.118-36 36-36 10.042 0 19.123 4.111 25.653 10.743l51.305 51.305v-206.94h-300.98zM452.94 148.62v206.94l51.28-51.3c6.516-6.516 15.517-10.546 25.46-10.546 19.885 0 36.006 16.12 36.006 36.006 0 9.943-4.030 18.944-10.546 25.46l-56.84 56.82h561.7v-263.38z" />
<glyph unicode="&#xe93a;" glyph-name="Ikoner_regular-outline_gift" d="M1013 779.9h-221.6c6.467 14.303 10.235 31.012 10.235 48.6 0 66.55-53.95 120.5-120.5 120.5-0.012 0-0.025 0-0.037 0h0.002c-64.14 0-120.12-35.040-162-101.36-2.52-4-4.9-8-7.18-12-2.28 4-4.66 8-7.18 12-41.72 66.36-97.7 101.36-161.84 101.36-0.011 0-0.023 0-0.035 0-66.55 0-120.5-53.95-120.5-120.5 0-17.588 3.768-34.297 10.542-49.362l-0.306 0.762h-221.6v-241.080h84.54v-591.82h832.92v591.82h84.54zM681.1 877c26.392-0.553 47.575-22.078 47.575-48.55s-21.183-47.997-47.523-48.549l-0.051-0.001h-117.1c19.74 41.66 57.18 97.1 117.1 97.1zM465.42 707.9h95.12v-97.080h-97.080v97.080zM294.36 828.46c0.034 26.794 21.746 48.506 48.537 48.54h0.003c60 0 97.36-55.44 117.040-97.1h-117.040c-26.801 0.034-48.517 21.757-48.54 48.558v0.002zM83 707.9h308.46v-97.080h-308.46zM167.54 19v519.82h224v-519.82zM463.54 19v519.82h97.080v-519.82zM856.54 19h-224v519.82h224zM941 610.82h-308.46v97.080h308.46z" />
<glyph unicode="&#xe93d;" glyph-name="Ikoner_regular-outline_flag" d="M900.3 853.74c-77.24-31.14-185.16-31.14-262.42 0l-51.56 20.78c-94.58 38-221.68 38-316.26 0l-45.62-18.38v56.86c0 19.882-16.118 36-36 36s-36-16.118-36-36v0-930c0-19.882 16.118-36 36-36s36 16.118 36 36v0 330.7l72.54 29.22c77.26 31.14 185.18 31.14 262.42 0l51.58-20.76c47.28-19.060 102.7-28.6 158.12-28.58s110.84 9.52 158.12 28.58l22.54 9.080v542.42zM877.76 380.98c-74.72-22.9-169.88-20.24-239.88 8l-51.56 20.78c-94.58 38.1-221.68 38.1-316.26 0l-45.62-18.4v387.14l72.54 29.24c77.26 31.12 185.18 31.12 262.42 0l51.58-20.78c78.88-31.8 180.4-37.080 266.78-15.82z" />
<glyph unicode="&#xe93f;" glyph-name="Ikoner_regular-outline_envelope" horiz-adv-x="1140" d="M1132 112.62v706.76h-1124v-742.76h1124v36zM80 702.86l265.6-237.74-265.6-265.6zM570 360.86l-431.84 386.52h863.6zM399.34 417l170.66-152.72 170.66 152.76 268.4-268.42h-878.2zM794.4 465l265.6 237.86v-503.34z" />
<glyph unicode="&#xe940;" glyph-name="Ikoner_regular-outline_dolly" horiz-adv-x="1205" d="M1193.48 413.88c-6.512 9.964-17.614 16.456-30.233 16.456-7.257 0-14.012-2.147-19.665-5.841l0.138 0.085-23.26-15.020-211.8 327.78-160.66-103.82-118 182.6-254.66-164.58-137.24 212.46-188.84 40.52c-2.275 0.512-4.888 0.805-7.57 0.805-19.885 0-36.005-16.12-36.005-36.005 0-17.203 12.065-31.589 28.196-35.156l0.239-0.044 159.7-34.32 393.5-608.8c-24.175-26.012-39.011-60.993-39.011-99.438 0-80.766 65.474-146.24 146.24-146.24s146.24 65.474 146.24 146.24c0 16.682-2.793 32.711-7.937 47.646l0.308-1.028 349.64 225.82c9.987 6.509 16.497 17.624 16.497 30.259 0 7.296-2.17 14.085-5.901 19.757l0.084-0.136zM1060 370.48l-266-171.9c-26.090 24.184-61.142 39.020-99.66 39.020-16.68 0-32.71-2.782-47.652-7.908l1.032 0.308-115.32 178.48 354.86 229.3zM608.64 716.48l78.9-122.1-194.22-125.5-33.32 51.7-45.56 70.48zM767.040 75.72c-7.468-33.737-37.125-58.597-72.589-58.597-41.013 0-74.26 33.247-74.26 74.26s33.247 74.26 74.26 74.26c26.020 0 48.914-13.382 62.175-33.639l0.174-0.283c7.476-11.351 11.926-25.272 11.926-40.231 0-5.558-0.614-10.973-1.779-16.181l0.092 0.492z" />
<glyph unicode="&#xe941;" glyph-name="Ikoner_regular-outline_document" d="M590.12 938.44v0l-10.56 10.56h-432.56v-1002h735.3v699.28zM600.66 826l158.72-158.72h-158.72zM219 19v858h309.66v-281.64h281.64v-576.36zM703.68 559.54h-378c-19.882 0-36-16.118-36-36s16.118-36 36-36v0h378c19.882 0 36 16.118 36 36s-16.118 36-36 36v0zM703.68 449.24h-378c-19.882 0-36-16.118-36-36s16.118-36 36-36v0h378c19.882 0 36 16.118 36 36s-16.118 36-36 36v0zM518.92 338.94h-193.3c-19.882 0-36-16.118-36-36s16.118-36 36-36v0h193.3c19.882 0 36 16.118 36 36s-16.118 36-36 36v0z" />
<glyph unicode="&#xe942;" glyph-name="Ikoner_regular-outline_speak" d="M213.64-64.64v254.8h-202.080v725.080h1002v-725.080h-474.42zM83.64 262.16h202v-179l228.68 179h427.24v581.080h-858z" />
<glyph unicode="&#xe943;" glyph-name="Ikoner_regular-outline_diagram" d="M316-56.16h-305.38v588.74h305.38zM82.68 15.84h161.32v444.74h-161.38zM664.32-56.16h-305.42v943.78h305.42zM430.9 15.84h161.42v799.78h-161.42zM1012.62-56.16h-305.36v362.16h305.36zM779.26 15.84h161.36v218.16h-161.36z" />
<glyph unicode="&#xe945;" glyph-name="Ikoner_regular-outline_cloud" horiz-adv-x="1101" d="M846.84 83.24h-596c-135.272 0.148-244.892 109.768-245.040 245.026v0.014c0 86.6 47.080 167.56 121.4 211.34 18.996 90.022 97.771 156.618 192.101 156.618 20.518 0 40.3-3.151 58.889-8.995l-1.389 0.377c58.102 77.144 149.524 126.5 252.474 126.5 80.942 0 154.759-30.51 210.576-80.657l-0.29 0.257c50.202-45.523 85.404-106.77 97.818-175.926l0.282-1.894c91.128-37.087 154.2-124.968 154.2-227.58 0-135.325-109.697-245.029-245.019-245.040h-0.001zM319.3 624.2c-63.989-0.244-116.59-48.678-123.41-110.883l-0.050-0.557-2-20-18-8.76c-58.417-28.594-97.933-87.602-97.933-155.84 0-95.523 77.437-172.96 172.96-172.96 0.012 0 0.023 0 0.035 0h595.998c95.542 0.034 172.981 77.494 172.981 173.040 0 78.379-52.111 144.587-123.576 165.867l-1.225 0.313-23.32 6.76-2.44 24.16c-12.203 122.111-114.418 216.668-238.718 216.668-0.704 0-1.407-0.003-2.11-0.009l0.108 0.001c-87.446-0.353-163.987-46.708-206.716-116.106l-0.604-1.054-17.16-28.36-29.68 14.74c-16.074 8.157-35.044 12.948-55.129 12.98h-0.011z" />
<glyph unicode="&#xe946;" glyph-name="Ikoner_regular-outline_error" d="M695.4 631.42c-6.514 6.511-15.512 10.538-25.45 10.538s-18.936-4.027-25.45-10.538l-132.5-132.52-132.52 132.52c-6.534 6.636-15.616 10.747-25.657 10.747-19.882 0-36-16.118-36-36 0-10.047 4.115-19.132 10.752-25.662l132.485-132.505-132.5-132.52c-6.192-6.455-10.005-15.235-10.005-24.905 0-19.882 16.118-36 36-36 9.67 0 18.449 3.813 24.917 10.017l-0.013-0.012 132.54 132.5 132.52-132.52c6.564-6.843 15.783-11.095 25.995-11.095 19.882 0 36 16.118 36 36 0 10.212-4.252 19.432-11.083 25.983l-0.013 0.012-132.52 132.54 132.5 132.52c6.511 6.514 10.538 15.512 10.538 25.45s-4.027 18.936-10.538 25.45v0zM865.88 802c-90.664 90.661-215.913 146.736-354.26 146.736-276.698 0-501.006-224.308-501.006-501.006 0-138.352 56.079-263.605 146.746-354.27v0c90.664-90.661 215.913-146.736 354.26-146.736 276.698 0 501.006 224.308 501.006 501.006 0 138.352-56.079 263.605-146.746 354.27v0zM814.96 144.36c-77.634-77.634-184.884-125.652-303.35-125.652-236.931 0-429.002 192.071-429.002 429.002 0 118.466 48.018 225.716 125.652 303.35v0c77.634 77.634 184.884 125.652 303.35 125.652 236.931 0 429.002-192.071 429.002-429.002 0-118.466-48.018-225.716-125.652-303.35v0z" />
<glyph unicode="&#xe947;" glyph-name="Ikoner_regular-outline_information-circle" d="M512-53.28c-0.005 0-0.012 0-0.019 0-276.695 0-501 224.305-501 501 0 138.357 56.084 263.615 146.758 354.279l0.001 0.001c90.664 90.661 215.913 146.736 354.26 146.736 276.698 0 501.006-224.308 501.006-501.006 0-138.352-56.079-263.605-146.746-354.27v0c-90.155-90.644-214.965-146.742-352.877-146.742-0.486 0-0.972 0.001-1.458 0.002h0.075zM512 876.72c-236.93-0.015-428.994-192.088-428.994-429.020 0-118.459 48.011-225.705 125.635-303.341l-0.001 0.001c77.634-77.634 184.884-125.652 303.35-125.652 236.931 0 429.002 192.071 429.002 429.002 0 118.466-48.018 225.716-125.652 303.35v0c-77.2 77.622-184.076 125.662-302.172 125.662-0.411 0-0.821-0.001-1.231-0.002h0.063zM512 629.76c19.253 0 34.86 15.607 34.86 34.86s-15.607 34.86-34.86 34.86c-19.253 0-34.86-15.607-34.86-34.86v0c0-19.253 15.607-34.86 34.86-34.86v0zM569.88 303.12h-21.88v308.88h-79.8c-19.882 0-36-16.118-36-36s16.118-36 36-36v0h7.8v-236.88h-21.88c-19.882 0-36-16.118-36-36s16.118-36 36-36v0h115.76c19.882 0 36 16.118 36 36s-16.118 36-36 36v0z" />
<glyph unicode="&#xe948;" glyph-name="Ikoner_regular-outline_success" d="M458.34 280.42l-150.22 150.2c-6.516 6.516-10.546 15.517-10.546 25.46 0 19.885 16.12 36.006 36.006 36.006 9.943 0 18.944-4.030 25.46-10.546l99.3-99.3 207.3 207.3c6.455 6.192 15.235 10.005 24.905 10.005 19.882 0 36-16.118 36-36 0-9.67-3.813-18.449-10.017-24.917l0.012 0.013zM512.34-53.28c-0.030 0-0.064 0-0.099 0-276.695 0-501 224.305-501 501 0 138.357 56.084 263.615 146.759 354.28v0c90.671 90.678 215.936 146.765 354.3 146.765 276.714 0 501.035-224.321 501.035-501.035 0-138.35-56.074-263.602-146.735-354.27v0c-90.155-90.644-214.965-146.742-352.877-146.742-0.486 0-0.972 0.001-1.458 0.002h0.075zM512.34 876.72c-236.93-0.015-428.994-192.088-428.994-429.020 0-118.459 48.011-225.705 125.635-303.341l-0.001 0.001c77.634-77.634 184.884-125.652 303.35-125.652 236.931 0 429.002 192.071 429.002 429.002 0 118.466-48.018 225.716-125.652 303.35v0c-77.2 77.622-184.076 125.662-302.172 125.662-0.411 0-0.821-0.001-1.231-0.002h0.063z" />
<glyph unicode="&#xe94a;" glyph-name="Ikoner_regular-outline_chevron-up" d="M816 260c-0.002 0-0.005 0-0.008 0-9.939 0-18.937 4.028-25.452 10.54l-278.54 278.56-278.58-278.58c-6.516-6.516-15.517-10.546-25.46-10.546-19.885 0-36.006 16.12-36.006 36.006 0 9.943 4.030 18.944 10.546 25.46l329.5 329.5 329.5-329.5c6.505-6.513 10.528-15.507 10.528-25.44 0-19.882-16.118-36-36-36-0.010 0-0.020 0-0.030 0h0.002z" />
<glyph unicode="&#xe94b;" glyph-name="Ikoner_regular-outline_chevron-right" d="M360 108c-0.002 0-0.005 0-0.008 0-19.882 0-36 16.118-36 36 0 9.943 4.031 18.945 10.548 25.46l278.56 278.54-278.58 278.58c-6.516 6.516-10.546 15.517-10.546 25.46 0 19.885 16.12 36.006 36.006 36.006 9.943 0 18.944-4.030 25.46-10.546l329.5-329.5-329.5-329.5c-6.51-6.488-15.492-10.5-25.412-10.5-0.010 0-0.020 0-0.030 0h0.002z" />
<glyph unicode="&#xe94c;" glyph-name="Ikoner_regular-outline_chevron-left" d="M664 108c-0.002 0-0.005 0-0.008 0-9.939 0-18.937 4.028-25.452 10.54l-329.48 329.46 329.5 329.5c6.516 6.516 15.517 10.546 25.46 10.546 19.885 0 36.006-16.12 36.006-36.006 0-9.943-4.030-18.944-10.546-25.46l-278.58-278.58 278.58-278.58c6.493-6.511 10.508-15.497 10.508-25.42 0-19.878-16.111-35.993-35.988-36h-0.001z" />
<glyph unicode="&#xe94d;" glyph-name="Ikoner_regular-outline_chevron-down" d="M512 245.080l-329.5 329.48c-6.516 6.516-10.546 15.517-10.546 25.46 0 19.885 16.12 36.006 36.006 36.006 9.943 0 18.944-4.030 25.46-10.546l278.58-278.58 278.58 278.58c6.516 6.516 15.517 10.546 25.46 10.546 19.885 0 36.006-16.12 36.006-36.006 0-9.943-4.030-18.944-10.546-25.46v0z" />
<glyph unicode="&#xe94e;" glyph-name="check-regular" horiz-adv-x="1340" d="M934.4 812.8l-624-627.2-220.8 220.8c-16 16-41.6 16-57.6 0s-16-41.6 0-57.6l275.2-275.2 684.8 681.6c16 16 16 41.6 0 57.6-16 12.8-41.6 12.8-57.6 0z" />
<glyph unicode="&#xe94f;" glyph-name="Ikoner_regular-outline_certified" d="M849.42 616.64c0 187.5-152.54 340-340 340s-340-152.54-340-340c0-0.014 0-0.031 0-0.047 0-110.069 52.347-207.913 133.503-269.993l0.817-0.6-112.22-404.96 317.88 124 317.88-124-112.22 404.96c81.997 62.676 134.36 160.529 134.36 270.613 0 0.009 0 0.019 0 0.028v-0.001zM241.42 616.64c0 147.8 120.24 268 268 268s268-120.24 268-268-120.24-268-268-268-268.060 120.2-268.060 268zM719.52 60.32l-210.12 81.9-210.12-81.9 68.5 247.22c41.555-19.537 90.251-30.94 141.61-30.94s100.055 11.403 143.694 31.815l-2.084-0.876z" />
<glyph unicode="&#xe951;" glyph-name="Ikoner_regular-outline_cart-1" horiz-adv-x="1070" d="M445.54-52.9c-63.446 0-114.88 51.434-114.88 114.88s51.434 114.88 114.88 114.88c63.439 0 114.869-51.422 114.88-114.859v-0.001c-0.068-63.423-51.459-114.82-114.872-114.9h-0.008zM445.54 104.86c-23.682 0-42.88-19.198-42.88-42.88s19.198-42.88 42.88-42.88c23.682 0 42.88 19.198 42.88 42.88 0 0.007 0 0.014 0 0.021v-0.001c-0.045 23.66-19.219 42.826-42.877 42.86h-0.003zM816.38-52.9c-63.446 0-114.88 51.434-114.88 114.88s51.434 114.88 114.88 114.88c63.439 0 114.869-51.422 114.88-114.859v-0.001c-0.068-63.423-51.459-114.82-114.872-114.9h-0.008zM816.38 104.86c-23.682 0-42.88-19.198-42.88-42.88s19.198-42.88 42.88-42.88c23.682 0 42.88 19.198 42.88 42.88 0 0.007 0 0.014 0 0.021v-0.001c-0.045 23.66-19.219 42.826-42.877 42.86h-0.003zM933.14 221.020h-592.62l-160.28 656h-131.4c-19.882 0-36 16.118-36 36s16.118 36 36 36v0h188l54.82-224.62h764zM397.14 293.020h479.44l87.42 359.38h-654.74z" />
<glyph unicode="&#xe953;" glyph-name="Ikoner_regular-outline_camera" horiz-adv-x="1149" d="M1141.080-0.9h-1133.74v677.6h223.1l80.12 219.54h527.32l80.12-219.54h223.080zM79.34 71.1h989.74v533.6h-201.46l-80.12 219.54h-426.58l-80.1-219.54h-201.48zM580.76 104.12c-0.006 0-0.013 0-0.020 0-140.026 0-253.54 113.514-253.54 253.54s113.514 253.54 253.54 253.54c140.026 0 253.54-113.514 253.54-253.54v0c-0.159-139.955-113.566-253.369-253.504-253.54h-0.016zM580.76 539.18c-0.006 0-0.013 0-0.020 0-100.262 0-181.54-81.278-181.54-181.54s81.278-181.54 181.54-181.54c100.262 0 181.54 81.278 181.54 181.54 0 0.007 0 0.014 0 0.021v-0.001c-0.114 100.205-81.315 181.406-181.509 181.52h-0.011z" />
<glyph unicode="&#xe954;" glyph-name="Ikoner_regular-outline_calender-check" d="M844 864.84v84.54h-198.8v-84.54h-266.3v84.54h-198.8v-84.54h-169.1v-917.46h1002v917.46zM717.2 877.38h54.8v-139.38h-54.8zM252.2 877.38h54.8v-139.38h-54.8zM180.2 792.84v-126.84h198.8v126.84h266.2v-126.84h198.8v126.84h97v-181.64h-858v181.64zM83 19.38v519.82h858v-519.82zM657.080 467.4l-194.72-194.72-92.56 92.54c-6.455 6.192-15.235 10.005-24.905 10.005-19.882 0-36-16.118-36-36 0-9.67 3.813-18.449 10.017-24.917l-0.012 0.013 143.46-143.46 245.64 245.62c6.394 6.494 10.343 15.412 10.343 25.253 0 19.882-16.118 36-36 36-9.836 0-18.75-3.944-25.248-10.338l0.005 0.005z" />
<glyph unicode="&#xe955;" glyph-name="Ikoner_regular-outline_calender" d="M844 864.84v84.54h-198.8v-84.54h-266.3v84.54h-198.8v-84.54h-169.1v-917.46h1002v917.46zM717.2 877.38h54.8v-139.38h-54.8zM252.2 877.38h54.8v-139.38h-54.8zM180.2 792.84v-126.84h198.8v126.84h266.2v-126.84h198.8v126.84h97v-181.64h-858v181.64zM83 19.38v519.82h858v-519.82z" />
<glyph unicode="&#xe956;" glyph-name="Ikoner_regular-outline_burger-menu" d="M977 412h-930c-19.882 0-36 16.118-36 36s16.118 36 36 36v0h930c19.882 0 36-16.118 36-36s-16.118-36-36-36v0zM977 712.12h-930c-19.882 0-36 16.118-36 36s16.118 36 36 36v0h930c19.882 0 36-16.118 36-36s-16.118-36-36-36v0zM977 111.88h-930c-19.882 0-36 16.118-36 36s16.118 36 36 36v0h930c19.882 0 36-16.118 36-36s-16.118-36-36-36v0z" />
<glyph unicode="&#xe958;" glyph-name="Ikoner_regular-outline_basket-2" horiz-adv-x="1033" d="M879.46 734.4h-161.66v13.42c0.006 0.597 0.010 1.301 0.010 2.007 0 111.252-90.188 201.44-201.44 201.44s-201.44-90.188-201.44-201.44c0-0.706 0.004-1.411 0.011-2.115l-0.001 0.107v-13.42h-161.64l-146.48-787.14h1019.18zM386.94 747.82c-0.006 0.478-0.010 1.043-0.010 1.609 0 71.488 57.952 129.44 129.44 129.44s129.44-57.952 129.44-129.44c0-0.566-0.004-1.131-0.011-1.695l0.001 0.086v-13.42h-258.86zM213.14 662.4h101.8v-74c0-19.882 16.118-36 36-36s36 16.118 36 36v0 74h258.86v-74c0-19.882 16.118-36 36-36s36 16.118 36 36v0 74h101.82l119.68-643.14h-845.84z" />
<glyph unicode="&#xe959;" glyph-name="Ikoner_regular-outline_basket-1" d="M892.66 776.98h-185.28c-12.857 97.474-95.424 171.925-195.38 171.925s-182.523-74.451-195.272-170.924l-0.108-1.001h-185.28l-88.18-830.1h937.68zM512 876.88c60.143-0.098 110.334-42.588 122.295-99.183l0.145-0.817h-244.88c12.106 57.412 62.297 99.902 122.429 100h0.011zM196.1 704.88h118.92v-108.3c0-19.882 16.118-36 36-36s36 16.118 36 36v0 108.4h250v-108.3c0-19.882 16.118-36 36-36s36 16.118 36 36v0 108.3h118.98l72.88-686.1h-777.66z" />
<glyph unicode="&#xe95a;" glyph-name="Ikoner_regular-outline_ball-pen" d="M836.86 532.2l-17.4-17.46-51.46 262.78-766.3 180.2 180.3-766.24 262.78-51.48-17.46-17.46 184-184 409.66 409.46zM241.36 253.2l-127.36 541.24 215.44-215.36c-12.325-20.676-19.612-45.597-19.612-72.22 0-78.855 63.925-142.78 142.78-142.78s142.78 63.925 142.78 142.78c0 78.855-63.925 142.78-142.78 142.78-26.642 0-51.58-7.297-72.924-20.002l0.656 0.362-215.36 215.36 541.24-127.36 52-264.76-252-252zM452.82 577.64c39.211-0.031 70.986-31.825 70.986-71.040 0-39.234-31.806-71.040-71.040-71.040s-71.040 31.806-71.040 71.040c0 19.631 7.962 37.402 20.834 50.259l0.001 0.001c12.811 12.838 30.523 20.78 50.090 20.78 0.060 0 0.12 0 0.179 0h-0.009zM529.14 122.5l307.74 307.74 82.26-82.24-307.78-307.72z" />
<glyph unicode="&#xe95b;" glyph-name="Ikoner_regular-outline_arrow-up" d="M827.44 640.42l-315.44 315.44-315.44-315.44c-6.192-6.455-10.005-15.235-10.005-24.905 0-19.882 16.118-36 36-36 9.67 0 18.449 3.813 24.917 10.017l-0.013-0.012 228.54 228.48v-843.040c0-19.882 16.118-36 36-36s36 16.118 36 36v0 843.040l228.54-228.48c6.455-6.192 15.235-10.005 24.905-10.005 19.882 0 36 16.118 36 36 0 9.67-3.813 18.449-10.017 24.917l0.012-0.013z" />
<glyph unicode="&#xe95c;" glyph-name="Ikoner_regular-outline_arrow-right" d="M704.52 770.8c-6.534 6.636-15.616 10.747-25.657 10.747-19.882 0-36-16.118-36-36 0-10.047 4.115-19.132 10.752-25.662l228.525-228.525h-843.080c-19.882 0-36-16.118-36-36s16.118-36 36-36v0h843.080l-228.52-228.54c-6.642-6.535-10.757-15.621-10.757-25.667 0-19.882 16.118-36 36-36 10.042 0 19.123 4.111 25.653 10.743l315.485 315.465z" />
<glyph unicode="&#xe95d;" glyph-name="Ikoner_regular-outline_arrow-left" d="M985.54 491.34h-843.1l228.54 228.54c6.506 6.516 10.53 15.513 10.53 25.45 0 19.893-16.127 36.020-36.020 36.020-9.957 0-18.97-4.040-25.49-10.57v0l-315.38-315.44 315.38-315.44c6.516-6.516 15.517-10.546 25.46-10.546 19.885 0 36.006 16.12 36.006 36.006 0 9.943-4.030 18.944-10.546 25.46l-228.48 228.52h843.1c19.882 0 36 16.118 36 36s-16.118 36-36 36v0z" />
<glyph unicode="&#xe95e;" glyph-name="Ikoner_regular-outline_arrow-down" d="M827.48 304c-6.514 6.511-15.512 10.538-25.45 10.538s-18.936-4.027-25.45-10.538l-228.58-228.44v843.080c0 19.882-16.118 36-36 36s-36-16.118-36-36v0-843.080l-228.48 228.44c-6.397 5.925-14.99 9.559-24.431 9.559-19.882 0-36-16.118-36-36 0-9.417 3.615-17.989 9.534-24.404l-0.022 0.025 315.4-315.46 315.48 315.46c6.487 6.51 10.498 15.492 10.498 25.41s-4.011 18.9-10.499 25.411l0.001-0.001z" />
<glyph unicode="&#xe95f;" glyph-name="Ikoner_regular-outline_angle-up" d="M326.88 319.44c-0.002 0-0.005 0-0.008 0-19.882 0-36 16.118-36 36 0 9.943 4.031 18.945 10.548 25.46l210.58 210.58 210.58-210.58c6.388-6.493 10.333-15.407 10.333-25.243 0-19.882-16.118-36-36-36-9.841 0-18.759 3.948-25.257 10.347l-159.655 159.635-159.66-159.64c-6.514-6.521-15.515-10.557-25.459-10.56h-0.001z" />
<glyph unicode="&#xe960;" glyph-name="Ikoner_regular-outline_angle-right" d="M419.44 226.88c-19.877 0.007-35.988 16.122-35.988 36 0 9.943 4.031 18.945 10.548 25.46l159.64 159.66-159.64 159.66c-6.516 6.516-10.546 15.517-10.546 25.46 0 19.885 16.12 36.006 36.006 36.006 9.943 0 18.944-4.030 25.46-10.546l210.56-210.58-210.58-210.58c-6.514-6.512-15.513-10.54-25.452-10.54-0.003 0-0.006 0-0.009 0h0.001z" />
<glyph unicode="&#xe961;" glyph-name="Ikoner_regular-outline_angle-left" d="M604.56 226.88c-0.002 0-0.005 0-0.008 0-9.939 0-18.937 4.028-25.452 10.54l-210.58 210.58 210.58 210.58c6.493 6.388 15.407 10.333 25.243 10.333 19.882 0 36-16.118 36-36 0-9.841-3.948-18.759-10.347-25.257l-159.655-159.655 159.66-159.66c6.517-6.515 10.548-15.517 10.548-25.46 0-19.882-16.118-36-36-36-0.003 0-0.006 0-0.009 0v0z" />
<glyph unicode="&#xe962;" glyph-name="Ikoner_regular-outline_angle-down" d="M512 304.52l-210.58 210.58c-6.388 6.493-10.333 15.407-10.333 25.243 0 19.882 16.118 36 36 36 9.841 0 18.759-3.948 25.257-10.347l159.655-159.635 159.66 159.64c6.516 6.516 15.517 10.546 25.46 10.546 19.885 0 36.006-16.12 36.006-36.006 0-9.943-4.030-18.944-10.546-25.46v0z" />
<glyph unicode="&#xe963;" glyph-name="Ikoner_regular-outline_speak-double" horiz-adv-x="1196" d="M770.72 684.58v263.92h-751.96v-549.48h147.74v-196.48l251.020 196.48h7.84v-264h353.2l251.020-196.46v196.52h147.74v549.5zM392.72 471.020l-154.18-120.7v120.7h-147.78v405.48h608v-405.48zM1105.36 207.020h-147.78v-120.62l-154.18 120.68h-306v192h273.32v213.5h334.6z" />
<glyph unicode="&#xe964;" glyph-name="brand-youtube-y" d="M975.812 670.871c9.035-33.129 15.059-81.318 18.071-144.565l3.012-87.341-3.012-87.341c-3.012-66.259-9.035-114.447-18.071-147.576-6.024-21.082-15.059-36.141-33.129-54.212s-33.129-27.106-54.212-33.129c-30.118-9.035-102.4-15.059-213.835-18.071h-162.635l-159.624 3.012c-114.447 3.012-183.718 9.035-213.835 18.071-21.082 6.024-39.153 15.059-54.212 33.129s-27.106 33.129-33.129 54.212c-9.035 33.129-15.059 81.318-18.071 147.576l-3.012 84.329c0 27.106 0 54.212 3.012 87.341 3.012 63.247 9.035 114.447 18.071 144.565 6.024 21.082 15.059 39.153 33.129 54.212s33.129 27.106 54.212 33.129c30.118 9.035 102.4 15.059 213.835 18.071h159.624l159.624-3.012c114.447-3.012 183.718-9.035 213.835-18.071 21.082-6.024 39.153-15.059 54.212-33.129s30.118-30.118 36.141-51.2zM412.612 294.4l252.988 144.565-252.988 141.553v-286.118z" />
<glyph unicode="&#xe965;" glyph-name="brand-youtube" d="M906.541 128.753c0-24.094-9.035-42.165-24.094-60.235s-36.141-24.094-60.235-24.094h-620.424c-24.094 0-42.165 9.035-60.235 24.094s-24.094 36.141-24.094 60.235v620.424c0 24.094 9.035 42.165 24.094 60.235s36.141 24.094 60.235 24.094h620.424c24.094 0 42.165-9.035 60.235-24.094s24.094-36.141 24.094-60.235v-620.424zM831.247 496.188c-3.012 42.165-6.024 75.294-12.047 96.376-3.012 15.059-9.035 27.106-21.082 36.141s-21.082 18.071-36.141 21.082c-21.082 6.024-69.271 9.035-144.565 12.047l-105.412 3.012-105.412-3.012c-75.294-3.012-123.482-6.024-144.565-12.047-15.059-3.012-27.106-9.035-36.141-21.082s-18.071-21.082-21.082-36.141c-9.035-33.129-15.059-87.341-15.059-156.612l3.012-60.235c3.012-42.165 6.024-75.294 12.047-96.376 3.012-15.059 9.035-27.106 21.082-36.141s21.082-18.071 36.141-21.082c21.082-6.024 69.271-9.035 144.565-12.047l105.412-3.012 105.412 3.012c75.294 3.012 123.482 6.024 144.565 12.047 15.059 3.012 27.106 9.035 36.141 21.082s18.071 21.082 21.082 36.141c9.035 33.129 15.059 84.329 15.059 156.612 0 21.082 0 42.165-3.012 60.235zM614.4 438.965l-168.659-96.376v189.741l168.659-93.365z" />
<glyph unicode="&#xe966;" glyph-name="brand-vimeo" d="M743.906 303.435c-108.424-138.541-198.776-210.824-271.059-207.812-45.176 0-84.329 42.165-117.459 126.494l-24.094 93.365c-27.106 102.4-48.188 168.659-60.235 195.765-18.071 48.188-36.141 69.271-57.224 69.271-6.024 0-27.106-12.047-63.247-36.141l-36.141 48.188 51.2 45.176c48.188 42.165 81.318 72.282 99.388 87.341 33.129 27.106 60.235 39.153 81.318 39.153 60.235 6.024 99.388-36.141 114.447-126.494 18.071-114.447 33.129-192.753 45.176-231.906 12.047-48.188 27.106-72.282 45.176-69.271s42.165 27.106 75.294 78.306c33.129 54.212 51.2 93.365 54.212 120.471 3.012 36.141-9.035 57.224-36.141 66.259-21.082 6.024-45.176 3.012-75.294-12.047 39.153 126.494 114.447 189.741 222.871 186.729 81.318-3.012 120.471-54.212 114.447-159.624-3.012-75.294-57.224-180.706-162.635-313.224z" />
<glyph unicode="&#xe967;" glyph-name="brand-twitter-t" d="M873.412 598.588c0-84.329-21.082-165.647-63.247-243.953-42.165-84.329-102.4-150.588-177.694-198.776-84.329-54.212-180.706-84.329-289.129-84.329-102.4 0-198.776 27.106-283.106 84.329 12.047 0 27.106-3.012 45.176-3.012 87.341 0 162.635 27.106 231.906 78.306-42.165 0-78.306 12.047-108.424 36.141s-51.2 54.212-63.247 90.353c9.035 0 21.082 0 30.118 0 15.059 0 33.129 3.012 48.188 6.024-42.165 9.035-78.306 30.118-105.412 66.259s-42.165 72.282-42.165 117.459v3.012c27.106-18.071 54.212-27.106 84.329-27.106-24.094 18.071-45.176 39.153-60.235 66.259s-24.094 57.224-24.094 90.353 9.035 63.247 27.106 93.365c45.176-57.224 102.4-102.4 168.659-138.541s138.541-54.212 213.835-57.224c-3.012 15.059-3.012 27.106-3.012 42.165 0 33.129 9.035 63.247 24.094 93.365s39.153 51.2 66.259 69.271 60.235 24.094 90.353 24.094c27.106 0 51.2-6.024 75.294-15.059s42.165-24.094 60.235-42.165c42.165 9.035 81.318 24.094 117.459 45.176-12.047-45.176-39.153-81.318-78.306-105.412 36.141 6.024 69.271 15.059 105.412 30.118-27.106-36.141-57.224-69.271-93.365-96.376 0-6.024 3.012-12.047 3.012-24.094z" />
<glyph unicode="&#xe968;" glyph-name="brand-twitter" d="M822.212 833.506c24.094 0 42.165-9.035 60.235-24.094s24.094-36.141 24.094-60.235v-620.424c0-24.094-9.035-42.165-24.094-60.235s-36.141-24.094-60.235-24.094h-620.424c-24.094 0-42.165 9.035-60.235 24.094s-24.094 36.141-24.094 60.235v620.424c0 24.094 9.035 42.165 24.094 60.235s36.141 24.094 60.235 24.094h620.424zM734.871 553.412c21.082 15.059 42.165 36.141 57.224 60.235-21.082-9.035-45.176-15.059-66.259-18.071 24.094 15.059 42.165 36.141 51.2 63.247-24.094-15.059-48.188-24.094-75.294-27.106-21.082 24.094-51.2 36.141-84.329 36.141-24.094 0-45.176-6.024-63.247-18.071s-33.129-30.118-42.165-51.2-12.047-45.176-6.024-72.282c-48.188 3.012-93.365 15.059-135.529 36.141s-75.294 51.2-105.412 84.329c-12.047-18.071-15.059-36.141-15.059-57.224s6.024-39.153 15.059-57.224 21.082-30.118 39.153-42.165c-18.071 0-36.141 6.024-54.212 15.059v-3.012c0-27.106 9.035-54.212 27.106-75.294s39.153-36.141 66.259-39.153c-12.047 0-30.118 0-51.2 0 6.024-24.094 21.082-42.165 39.153-57.224s42.165-21.082 66.259-21.082c-42.165-33.129-90.353-48.188-141.553-48.188h-27.106c54.212-33.129 114.447-51.2 177.694-51.2 66.259 0 126.494 18.071 180.706 51.2 48.188 30.118 84.329 72.282 111.435 126.494 24.094 48.188 36.141 99.388 36.141 153.6v12.047z" />
<glyph unicode="&#xe969;" glyph-name="brand-tumbler" d="M713.788 5.271c-33.129-12.047-69.271-18.071-108.424-18.071-63.247 0-117.459 15.059-159.624 45.176-36.141 24.094-60.235 57.224-78.306 99.388-15.059 33.129-21.082 69.271-21.082 105.412v252.988h-84.329c-6.024 0-9.035 0-12.047 3.012s-6.024 9.035-6.024 15.059v120.471c0 6.024 3.012 12.047 6.024 18.071s9.035 9.035 15.059 12.047c48.188 15.059 87.341 45.176 114.447 90.353 21.082 33.129 33.129 72.282 36.141 117.459 0 18.071 12.047 27.106 27.106 27.106h126.494c6.024 0 9.035-3.012 12.047-6.024s6.024-9.035 6.024-12.047v-201.788h147.576c6.024 0 9.035-3.012 12.047-6.024s6.024-9.035 6.024-12.047v-147.576c0-6.024-3.012-9.035-6.024-12.047s-9.035-6.024-12.047-6.024h-147.576v-234.918c0-33.129 12.047-54.212 33.129-66.259s51.2-12.047 87.341 3.012c12.047 6.024 18.071 6.024 24.094 3.012s9.035-6.024 12.047-12.047l39.153-114.447c6.024-12.047 6.024-21.082 0-24.094-21.082-18.071-42.165-30.118-69.271-39.153z" />
<glyph unicode="&#xe96a;" glyph-name="brand-snapchat-s" d="M843.294 149.835c0-3.012-3.012-9.035-6.024-21.082l-6.024-21.082c-3.012-12.047-12.047-15.059-21.082-15.059-6.024 0-12.047 0-24.094 3.012-18.071 3.012-33.129 6.024-45.176 6.024-21.082 0-39.153-3.012-54.212-9.035-9.035-6.024-24.094-15.059-45.176-27.106-24.094-15.059-42.165-27.106-57.224-36.141-21.082-9.035-45.176-12.047-72.282-12.047-24.094-3.012-48.188 3.012-72.282 15.059-15.059 6.024-33.129 18.071-54.212 33.129l-3.012 3.012c-21.082 15.059-36.141 24.094-45.176 27.106-15.059 6.024-33.129 9.035-54.212 9.035-12.047 0-30.118-3.012-48.188-6.024-9.035 0-15.059-3.012-21.082-3.012-12.047 0-18.071 6.024-21.082 15.059l-6.024 18.071c-3.012 12.047-3.012 21.082-6.024 24.094-81.318 12.047-120.471 30.118-120.471 57.224 0 6.024 0 9.035 3.012 12.047s6.024 6.024 12.047 6.024c51.2 9.035 96.376 36.141 135.529 81.318 21.082 24.094 36.141 48.188 45.176 69.271v3.012c6.024 12.047 9.035 24.094 6.024 33.129s-12.047 9.035-21.082 15.059c-6.024 3.012-18.071 9.035-30.118 12.047l-12.047 3.012c-33.129 15.059-48.188 30.118-45.176 48.188 3.012 12.047 9.035 18.071 24.094 24.094s24.094 6.024 33.129 3.012c15.059-6.024 30.118-12.047 42.165-12.047 6.024 0 12.047 0 18.071 3.012l-3.012 21.082c-3.012 42.165-3.012 75.294-3.012 99.388 0 39.153 6.024 66.259 15.059 87.341 27.106 57.224 66.259 99.388 120.471 120.471 33.129 15.059 66.259 24.094 105.412 24.094h18.071c48.188 0 90.353-12.047 129.506-36.141s69.271-60.235 90.353-108.424c9.035-21.082 12.047-48.188 15.059-84.329 0-21.082 0-54.212-3.012-96.376l-3.012-24.094c6.024-3.012 9.035-3.012 15.059-3.012 12.047 0 24.094 3.012 39.153 12.047 12.047 6.024 24.094 6.024 36.141 0 18.071-6.024 27.106-15.059 27.106-33.129 0-15.059-15.059-30.118-45.176-45.176l-12.047-3.012c-30.118-9.035-45.176-21.082-51.2-33.129-3.012-9.035-3.012-18.071 6.024-33.129v-3.012c9.035-24.094 24.094-48.188 45.176-69.271 39.153-45.176 84.329-72.282 135.529-81.318 6.024 0 9.035-3.012 12.047-9.035s3.012-12.047 0-18.071c-9.035-18.071-48.188-36.141-117.459-45.176z" />
<glyph unicode="&#xe96b;" glyph-name="brand-snapchat-circle" d="M512 875.671c78.306 0 150.588-21.082 219.859-60.235s120.471-93.365 159.624-159.624 60.235-138.541 60.235-219.859-21.082-150.588-60.235-219.859-93.365-120.471-159.624-159.624-138.541-60.235-219.859-60.235-150.588 21.082-219.859 60.235-120.471 93.365-159.624 159.624-60.235 138.541-60.235 219.859 21.082 150.588 60.235 219.859 93.365 120.471 159.624 159.624 141.553 60.235 219.859 60.235zM813.176 279.341v0c0 6.024 0 9.035 0 12.047s-6.024 6.024-9.035 6.024c-33.129 6.024-63.247 24.094-90.353 54.212-12.047 15.059-24.094 30.118-30.118 48.188h-3.012c-3.012 9.035-3.012 18.071-3.012 24.094s12.047 12.047 33.129 18.071l12.047 3.012c21.082 9.035 30.118 18.071 30.118 27.106s-6.024 18.071-18.071 24.094c-9.035 3.012-18.071 3.012-24.094 0-9.035-6.024-18.071-9.035-27.106-9.035-3.012 0-6.024 0-9.035 3.012v12.047c3.012 30.118 3.012 51.2 3.012 66.259 0 24.094-3.012 45.176-9.035 57.224-15.059 30.118-36.141 54.212-63.247 69.271s-57.224 24.094-87.341 24.094h-12.047c-24.094 0-45.176-6.024-69.271-15.059-36.141-15.059-63.247-42.165-78.306-81.318-6.024-15.059-9.035-33.129-12.047-57.224 0-15.059 0-36.141 3.012-66.259l3.012-12.047c-3.012-3.012-9.035-3.012-12.047-3.012-9.035 0-18.071 3.012-27.106 6.024-6.024 3.012-12.047 3.012-21.082 0s-15.059-9.035-15.059-18.071c-3.012-12.047 6.024-24.094 30.118-33.129l9.035-3.012c18.071-6.024 30.118-12.047 33.129-18.071s3.012-15.059-3.012-24.094c-6.024-15.059-18.071-33.129-33.129-48.188-24.094-30.118-54.212-48.188-87.341-54.212-3.012 0-6.024-3.012-9.035-6.024s-6.024 0-6.024-3.012c0-15.059 27.106-30.118 78.306-36.141 0 0 3.012-6.024 6.024-15.059l3.012-15.059c0-6.024 6.024-12.047 15.059-12.047l15.059 3.012c12.047 3.012 21.082 3.012 33.129 3.012 15.059 0 27.106-3.012 36.141-6.024 6.024-3.012 18.071-9.035 30.118-18.071h3.012c15.059-12.047 27.106-18.071 36.141-21.082 15.059-9.035 33.129-12.047 48.188-12.047s33.129 3.012 48.188 12.047c12.047 6.024 24.094 12.047 39.153 24.094 12.047 9.035 24.094 15.059 30.118 18.071 9.035 3.012 21.082 6.024 36.141 6.024 9.035 0 21.082 0 33.129-3.012 6.024 0 12.047-3.012 15.059-3.012 9.035 0 12.047 3.012 15.059 12.047l3.012 15.059c3.012 9.035 3.012 12.047 6.024 15.059 39.153 3.012 63.247 15.059 72.282 30.118z" />
<glyph unicode="&#xe96c;" glyph-name="brand-snapchat" d="M822.212 833.506c24.094 0 42.165-9.035 60.235-24.094s24.094-36.141 24.094-60.235v-620.424c0-24.094-9.035-42.165-24.094-60.235s-36.141-24.094-60.235-24.094h-620.424c-24.094 0-42.165 9.035-60.235 24.094s-24.094 36.141-24.094 60.235v620.424c0 24.094 9.035 42.165 24.094 60.235s36.141 24.094 60.235 24.094h620.424zM813.176 279.341v0c0 6.024 0 9.035 0 12.047s-6.024 6.024-9.035 6.024c-33.129 6.024-63.247 24.094-90.353 54.212-12.047 15.059-24.094 30.118-30.118 48.188h-3.012c-3.012 9.035-3.012 18.071-3.012 24.094s12.047 12.047 33.129 18.071l12.047 3.012c21.082 9.035 30.118 18.071 30.118 27.106s-6.024 18.071-18.071 24.094c-9.035 3.012-15.059 3.012-24.094 0-9.035-6.024-18.071-9.035-27.106-9.035-3.012 0-6.024 0-9.035 3.012v12.047c3.012 30.118 3.012 51.2 3.012 66.259 0 24.094-3.012 45.176-9.035 57.224-15.059 30.118-36.141 54.212-63.247 69.271s-57.224 24.094-87.341 24.094h-12.047c-24.094 0-45.176-6.024-69.271-15.059-36.141-15.059-63.247-42.165-78.306-81.318-6.024-15.059-9.035-33.129-12.047-57.224 0-15.059 0-36.141 3.012-66.259l3.012-12.047c-3.012-3.012-9.035-3.012-12.047-3.012-9.035 0-18.071 3.012-27.106 6.024-6.024 3.012-12.047 3.012-21.082 0s-15.059-9.035-15.059-18.071c-3.012-12.047 6.024-24.094 30.118-33.129l9.035-3.012c18.071-6.024 30.118-12.047 33.129-18.071s3.012-15.059-3.012-24.094c-6.024-15.059-18.071-33.129-33.129-48.188-24.094-30.118-54.212-48.188-87.341-54.212-3.012 0-6.024-3.012-9.035-6.024s-6.024 0-6.024-3.012c0-15.059 27.106-30.118 78.306-36.141 0 0 3.012-6.024 6.024-15.059l3.012-15.059c0-6.024 6.024-12.047 15.059-12.047l15.059 3.012c12.047 3.012 21.082 3.012 33.129 3.012 15.059 0 27.106-3.012 36.141-6.024 6.024-3.012 18.071-9.035 30.118-18.071h3.012c15.059-12.047 27.106-18.071 36.141-21.082 15.059-9.035 33.129-12.047 48.188-12.047s33.129 3.012 48.188 12.047c12.047 6.024 24.094 12.047 39.153 24.094 12.047 9.035 24.094 15.059 30.118 18.071 9.035 3.012 21.082 6.024 36.141 6.024 9.035 0 21.082 0 33.129-3.012 6.024 0 12.047-3.012 15.059-3.012 9.035 0 12.047 3.012 15.059 12.047l3.012 15.059c3.012 9.035 3.012 12.047 6.024 15.059 39.153 3.012 63.247 15.059 72.282 30.118z" />
<glyph unicode="&#xe96d;" glyph-name="brand-skype" d="M867.388 360.659c27.106-36.141 39.153-75.294 39.153-120.471 0-36.141-9.035-69.271-27.106-99.388s-42.165-54.212-72.282-72.282-63.247-27.106-99.388-27.106c-45.176 0-84.329 12.047-120.471 39.153-27.106-6.024-51.2-6.024-78.306-6.024-66.259 0-126.494 15.059-180.706 48.188s-99.388 75.294-132.518 132.518-45.176 117.459-45.176 183.718c0 24.094 3.012 51.2 6.024 78.306-27.106 36.141-39.153 75.294-39.153 120.471 0 36.141 9.035 69.271 27.106 99.388s42.165 54.212 72.282 72.282 63.247 27.106 99.388 27.106c45.176 0 84.329-12.047 120.471-39.153 27.106 6.024 51.2 6.024 78.306 6.024 66.259 0 126.494-15.059 180.706-48.188s99.388-75.294 132.518-132.518 48.188-114.447 48.188-180.706c-3.012-27.106-6.024-54.212-9.035-81.318zM524.047 201.035c54.212 0 99.388 12.047 135.529 36.141 42.165 27.106 63.247 66.259 63.247 114.447 0 39.153-18.071 72.282-54.212 96.376-24.094 15.059-60.235 30.118-108.424 39.153l-27.106 6.024c-36.141 9.035-60.235 15.059-69.271 21.082-15.059 6.024-24.094 18.071-24.094 33.129 0 27.106 24.094 39.153 75.294 39.153 21.082 0 36.141-3.012 54.212-12.047 9.035-6.024 18.071-12.047 33.129-24.094 9.035-9.035 15.059-15.059 21.082-18.071 9.035-6.024 18.071-6.024 27.106-6.024 15.059 0 30.118 6.024 39.153 15.059s15.059 24.094 15.059 39.153c0 27.106-21.082 51.2-63.247 69.271-39.153 18.071-84.329 27.106-135.529 27.106s-93.365-12.047-129.506-33.129c-42.165-27.106-63.247-63.247-63.247-111.435 0-33.129 9.035-60.235 24.094-78.306 12.047-18.071 33.129-33.129 63.247-42.165 18.071-6.024 48.188-15.059 90.353-24.094l36.141-9.035c27.106-6.024 42.165-12.047 48.188-15.059 12.047-6.024 18.071-18.071 18.071-33.129s-6.024-24.094-21.082-33.129-33.129-12.047-54.212-12.047-42.165 6.024-60.235 15.059c-12.047 6.024-24.094 15.059-39.153 33.129-12.047 12.047-18.071 18.071-24.094 24.094-9.035 6.024-18.071 9.035-30.118 9.035-15.059 0-30.118-6.024-39.153-15.059s-12.047-24.094-12.047-39.153c0-21.082 9.035-39.153 27.106-57.224s45.176-30.118 78.306-42.165 66.259-12.047 105.412-12.047z" />
<glyph unicode="&#xe96e;" glyph-name="brand-pinterest-p" d="M533.082 878.682c54.212 0 108.424-15.059 156.612-39.153s87.341-57.224 114.447-99.388c30.118-45.176 45.176-96.376 45.176-153.6s-9.035-111.435-27.106-162.635c-21.082-54.212-51.2-99.388-90.353-129.506-42.165-36.141-93.365-54.212-153.6-54.212-24.094 0-48.188 6.024-69.271 18.071s-39.153 27.106-51.2 48.188l-15.059-57.224c-15.059-60.235-27.106-102.4-36.141-126.494-15.059-33.129-39.153-72.282-75.294-120.471l-9.035-6.024-6.024 6.024-3.012 27.106c-3.012 33.129-6.024 57.224-6.024 75.294 0 36.141 6.024 81.318 18.071 138.541 6.024 33.129 18.071 81.318 36.141 147.576l21.082 84.329c-12.047 21.082-18.071 51.2-18.071 87.341 0 33.129 9.035 63.247 27.106 84.329 15.059 18.071 33.129 30.118 57.224 36.141s42.165 0 57.224-12.047 24.094-33.129 24.094-63.247c0-15.059-3.012-33.129-6.024-51.2-3.012-12.047-9.035-27.106-15.059-48.188s-12.047-39.153-15.059-48.188c-6.024-18.071-6.024-36.141-6.024-48.188 0-21.082 9.035-42.165 24.094-54.212s36.141-21.082 57.224-21.082c36.141 0 69.271 15.059 96.376 48.188 21.082 27.106 39.153 63.247 48.188 108.424 9.035 36.141 15.059 75.294 15.059 111.435 0 60.235-18.071 108.424-57.224 141.553s-87.341 51.2-150.588 51.2c-45.176 0-87.341-12.047-126.494-33.129s-69.271-51.2-90.353-87.341-33.129-81.318-33.129-126.494c0-21.082 3.012-39.153 12.047-57.224 3.012-12.047 9.035-24.094 18.071-39.153 6.024-12.047 12.047-18.071 12.047-24.094 0-9.035-3.012-21.082-6.024-36.141-6.024-18.071-12.047-27.106-18.071-27.106-15.059 0-33.129 9.035-48.188 24.094s-33.129 36.141-45.176 63.247c-12.047 33.129-18.071 66.259-18.071 105.412 0 63.247 18.071 120.471 54.212 168.659 33.129 45.176 78.306 81.318 132.518 108.424s108.424 42.165 168.659 42.165z" />
<glyph unicode="&#xe96f;" glyph-name="brand-pinterest-circle" d="M891.482 219.106c-39.153-66.259-93.365-120.471-159.624-159.624s-138.541-60.235-219.859-60.235c-45.176 0-87.341 6.024-129.506 18.071 27.106 48.188 45.176 84.329 54.212 114.447l27.106 105.412c6.024-15.059 21.082-27.106 39.153-36.141s39.153-15.059 63.247-15.059c42.165 0 81.318 12.047 114.447 36.141s63.247 57.224 81.318 99.388 30.118 87.341 30.118 135.529-12.047 93.365-36.141 132.518-57.224 69.271-96.376 90.353-87.341 33.129-138.541 33.129c-60.235 0-114.447-12.047-159.624-36.141-42.165-24.094-72.282-54.212-96.376-96.376s-33.129-84.329-33.129-132.518c0-33.129 9.035-69.271 24.094-102.4s39.153-57.224 63.247-69.271c9.035-3.012 12.047-3.012 15.059 6.024l12.047 48.188c0 6.024 0 9.035-3.012 12.047-9.035 12.047-18.071 27.106-24.094 45.176s-9.035 36.141-9.035 54.212c0 33.129 9.035 63.247 24.094 93.365s39.153 51.2 69.271 69.271c30.118 18.071 66.259 27.106 105.412 27.106 54.212 0 99.388-18.071 132.518-51.2s51.2-75.294 51.2-126.494c0-60.235-12.047-108.424-39.153-144.565s-60.235-57.224-99.388-57.224c-21.082 0-39.153 9.035-54.212 24.094s-18.071 33.129-12.047 54.212c3.012 12.047 9.035 33.129 15.059 57.224 12.047 42.165 18.071 75.294 18.071 90.353 0 18.071-6.024 30.118-15.059 42.165s-24.094 18.071-39.153 18.071c-21.082 0-42.165-9.035-57.224-30.118s-18.071-39.153-18.071-69.271c0-27.106 3.012-48.188 12.047-66.259l-48.188-216.847c-6.024-30.118-9.035-72.282-3.012-126.494-81.318 33.129-150.588 87.341-201.788 159.624s-75.294 156.612-75.294 249.976c0 78.306 21.082 150.588 60.235 219.859s93.365 120.471 159.624 159.624 138.541 60.235 219.859 60.235 150.588-21.082 219.859-60.235 120.471-93.365 159.624-159.624 60.235-138.541 60.235-219.859-24.094-153.6-63.247-219.859z" />
<glyph unicode="&#xe970;" glyph-name="brand-pinterest" d="M906.541 128.753c0-24.094-9.035-42.165-24.094-60.235s-36.141-24.094-60.235-24.094h-433.694c27.106 42.165 42.165 78.306 48.188 105.412l27.106 105.412c6.024-15.059 21.082-27.106 39.153-36.141s39.153-15.059 60.235-15.059c42.165 0 81.318 12.047 117.459 36.141s60.235 57.224 81.318 96.376 30.118 87.341 30.118 135.529-12.047 90.353-36.141 129.506-57.224 69.271-96.376 90.353-87.341 33.129-135.529 33.129c-60.235 0-111.435-12.047-156.612-36.141-45.176-30.118-75.294-60.235-99.388-99.388s-33.129-84.329-33.129-129.506c0-33.129 9.035-66.259 24.094-99.388s36.141-57.224 63.247-69.271c9.035-3.012 12.047 0 15.059 6.024l12.047 48.188c0 6.024 0 9.035-3.012 12.047-9.035 12.047-18.071 27.106-24.094 45.176s-9.035 36.141-9.035 54.212c0 33.129 9.035 63.247 24.094 93.365s39.153 51.2 66.259 69.271c30.118 18.071 66.259 27.106 105.412 27.106 54.212 0 96.376-15.059 129.506-48.188s51.2-75.294 51.2-126.494c0-57.224-12.047-105.412-39.153-141.553s-60.235-54.212-99.388-54.212c-21.082 0-39.153 9.035-51.2 24.094s-18.071 33.129-12.047 54.212c3.012 12.047 9.035 33.129 15.059 57.224 12.047 42.165 18.071 72.282 18.071 87.341 0 21.082-6.024 39.153-18.071 48.188s-27.106 15.059-48.188 9.035-33.129-15.059-48.188-30.118c-12.047-18.071-18.071-42.165-18.071-72.282 0-27.106 3.012-48.188 12.047-66.259l-24.094-99.388c-18.071-72.282-27.106-117.459-30.118-138.541-3.012-24.094-3.012-57.224 3.012-99.388l6.024-3.012h-153.6c-24.094 0-42.165 9.035-60.235 24.094s-24.094 36.141-24.094 60.235v617.412c0 24.094 9.035 42.165 24.094 60.235s36.141 24.094 60.235 24.094h620.424c24.094 0 42.165-9.035 60.235-24.094s24.094-36.141 24.094-60.235v-620.424z" />
<glyph unicode="&#xe971;" glyph-name="brand-mailchimp" d="M888.471 318.494c3.012-6.024 3.012-12.047 3.012-21.082s-3.012-15.059-6.024-21.082-6.024-9.035-6.024-9.035c-6.024-21.082-12.047-42.165-24.094-63.247-24.094-42.165-54.212-78.306-87.341-105.412-48.188-36.141-108.424-57.224-174.682-57.224-45.176 0-87.341 9.035-129.506 27.106-33.129 15.059-63.247 33.129-90.353 60.235-21.082 18.071-39.153 36.141-54.212 57.224l-18.071 27.106c-15.059 0-27.106 3.012-39.153 6.024-27.106 12.047-48.188 30.118-63.247 57.224s-15.059 57.224-3.012 84.329l-36.141 27.106c-30.118 21.082-36.141 63.247-15.059 120.471 18.071 51.2 51.2 105.412 99.388 165.647s96.376 102.4 144.565 129.506c54.212 30.118 93.365 36.141 123.482 12.047l30.118-24.094c45.176 27.106 87.341 42.165 123.482 42.165 27.106 0 48.188-9.035 63.247-24.094s21.082-39.153 15.059-69.271-18.071-63.247-39.153-96.376c9.035-9.035 18.071-18.071 24.094-33.129 15.059-12.047 24.094-27.106 27.106-48.188 3.012-9.035 3.012-24.094 6.024-48.188 0-15.059 3.012-24.094 3.012-27.106l18.071-12.047c21.082-9.035 36.141-21.082 48.188-33.129 15.059-3.012 24.094-12.047 30.118-24.094s3.012-27.106-6.024-39.153l-6.024-6.024v-3.012c6.024-9.035 9.035-18.071 12.047-30.118 12.047-3.012 21.082-9.035 27.106-21.082zM168.659 417.882c3.012-3.012 9.035-9.035 18.071-18.071l18.071-12.047c12.047 15.059 24.094 27.106 36.141 36.141 12.047 45.176 36.141 90.353 69.271 138.541 30.118 42.165 66.259 81.318 105.412 114.447 6.024 6.024 18.071 15.059 33.129 27.106l21.082 15.059-42.165 36.141-3.012 21.082 57.224-48.188-24.094-21.082-24.094-24.094c-18.071-18.071-36.141-36.141-51.2-57.224-24.094-30.118-45.176-60.235-57.224-84.329 66.259 78.306 108.424 123.482 123.482 141.553 18.071 18.071 45.176 39.153 75.294 63.247 21.082 18.071 36.141 27.106 42.165 30.118 30.118 18.071 57.224 30.118 78.306 36.141-30.118-3.012-63.247-15.059-102.4-39.153l-45.176 36.141-15.059-9.035c-18.071 6.024-45.176-3.012-75.294-18.071s-63.247-42.165-99.388-75.294-63.247-69.271-87.341-108.424c-21.082-33.129-36.141-63.247-45.176-90.353-15.059-42.165-15.059-72.282-6.024-90.353zM292.141 240.188c24.094 0 45.176 9.035 63.247 30.118s21.082 42.165 18.071 69.271c-3.012-9.035-6.024-15.059-12.047-18.071 0 18.071 0 36.141-6.024 54.212l-6.024-24.094c0 12.047-3.012 21.082-9.035 30.118-3.012 6.024-6.024 12.047-9.035 15.059l-6.024 3.012c-9.035 6.024-21.082 6.024-33.129 6.024-21.082 0-42.165-9.035-57.224-24.094s-24.094-33.129-24.094-57.224 9.035-42.165 24.094-60.235 33.129-24.094 57.224-24.094zM283.106 366.682c9.035 0 15.059 0 21.082-3.012s12.047-6.024 12.047-12.047c3.012-3.012 3.012-6.024 3.012-9.035l3.012-3.012c0 0 3.012 0 3.012 0s3.012 3.012 3.012 9.035c0 6.024 0 12.047-6.024 18.071s-15.059 12.047-24.094 15.059c-6.024 0-15.059 0-21.082-3.012h-6.024c-12.047-6.024-21.082-12.047-24.094-24.094s-6.024-21.082-6.024-33.129c0-6.024 3.012-12.047 6.024-18.071 3.012-3.012 6.024-3.012 9.035-3.012s3.012 3.012 0 6.024-3.012 12.047-3.012 18.071 3.012 24.094 9.035 33.129c6.024 0 9.035 3.012 15.059 6.024l6.024 3.012zM337.318 309.459c0 9.035-9.035 18.071-18.071 24.094l-6.024 3.012c0 0-3.012 3.012-3.012 6.024s0 3.012 3.012 6.024l3.012 3.012c0 0 0 3.012-3.012 3.012s-6.024 0-9.035-3.012-3.012-9.035-3.012-12.047 0-6.024 3.012-9.035 6.024-6.024 12.047-9.035c6.024-3.012 12.047-9.035 12.047-12.047v-9.035c0-6.024-3.012-9.035-9.035-12.047s-12.047-6.024-18.071-3.012c-3.012 0-3.012 0-3.012 0s0-3.012 3.012-3.012 9.035-3.012 12.047-3.012 15.059 3.012 21.082 12.047 6.024 9.035 3.012 18.071zM391.529 538.353c24.094 33.129 54.212 60.235 90.353 84.329 42.165 27.106 81.318 42.165 123.482 48.188 36.141 6.024 63.247 3.012 78.306-9.035l-3.012 3.012c-6.024 15.059-21.082 27.106-39.153 33.129 3.012-6.024 6.024-9.035 9.035-12.047-12.047 9.035-27.106 15.059-45.176 18.071l3.012-3.012c6.024-6.024 9.035-9.035 9.035-12.047-18.071 6.024-36.141 9.035-54.212 6.024l-3.012-3.012h3.012c9.035-3.012 12.047-6.024 15.059-9.035-12.047 3.012-27.106 3.012-39.153 0s-24.094-6.024-33.129-12.047h6.024c12.047 0 18.071 0 24.094-3.012-27.106-6.024-45.176-15.059-57.224-24.094 12.047 3.012 18.071 3.012 21.082 3.012-21.082-12.047-42.165-30.118-63.247-48.188-12.047-12.047-24.094-27.106-36.141-42.165-3.012-6.024-6.024-12.047-9.035-18.071zM855.341 279.341c9.035 9.035 12.047 18.071 9.035 24.094s-9.035 12.047-18.071 12.047l-12.047-3.012-3.012 15.059c-3.012 12.047-6.024 21.082-12.047 33.129-6.024-6.024-15.059-15.059-27.106-24.094-15.059-9.035-30.118-18.071-45.176-27.106-39.153-18.071-84.329-30.118-129.506-30.118h-6.024c-6.024 0-12.047 0-15.059-3.012s-6.024-6.024-6.024-12.047l-3.012-6.024c33.129-12.047 84.329-6.024 153.6 18.071l9.035 3.012c3.012 0-3.012-3.012-15.059-9.035s-27.106-12.047-42.165-18.071c-24.094-6.024-45.176-9.035-69.271-9.035-12.047 0-24.094 0-33.129 3.012 3.012-12.047 12.047-21.082 30.118-24.094l24.094-3.012c33.129 0 63.247 6.024 99.388 18.071 24.094 12.047 48.188 24.094 69.271 39.153 15.059 12.047 24.094 21.082 30.118 24.094v3.012c-6.024-12.047-18.071-27.106-39.153-42.165s-45.176-27.106-69.271-39.153c-30.118-12.047-60.235-18.071-87.341-18.071s-48.188 6.024-60.235 21.082-15.059 30.118-9.035 45.176 15.059 24.094 33.129 27.106h12.047c87.341 3.012 159.624 36.141 210.824 96.376 3.012 6.024 3.012 9.035 0 15.059s-12.047 9.035-18.071 9.035h-3.012c-12.047 12.047-27.106 24.094-45.176 33.129l-15.059 6.024c-9.035 3.012-12.047 9.035-15.059 12.047s-3.012 21.082-6.024 48.188l-3.012 12.047c-3.012 33.129-12.047 54.212-24.094 60.235-3.012 3.012-9.035 3.012-15.059 3.012h-9.035c-6.024-3.012-15.059-6.024-24.094-15.059-12.047-12.047-27.106-18.071-39.153-24.094-9.035 0-24.094 0-39.153 0h-21.082c-18.071 0-36.141-6.024-51.2-18.071s-24.094-27.106-24.094-48.188c-3.012-21.082-3.012-39.153 3.012-54.212l-6.024 6.024c-6.024 3.012-9.035 6.024-9.035 9.035 0-12.047 6.024-21.082 12.047-33.129 6.024-9.035 12.047-15.059 18.071-21.082l9.035-9.035h-12.047l12.047-9.035c9.035-6.024 18.071-9.035 24.094-12.047-3.012-3.012-9.035-9.035-15.059-15.059-9.035-12.047-15.059-24.094-21.082-36.141s-6.024-27.106-6.024-42.165v-18.071l9.035 12.047-3.012-18.071c0-15.059 3.012-30.118 6.024-42.165l12.047 24.094 3.012-18.071c3.012-15.059 6.024-27.106 12.047-39.153l3.012 21.082 6.024-15.059c6.024-12.047 12.047-24.094 24.094-33.129 12.047-12.047 33.129-18.071 57.224-24.094s51.2-3.012 78.306 3.012c30.118 9.035 57.224 21.082 84.329 39.153 36.141 39.153 60.235 72.282 72.282 117.459v0zM496.941 740.141l12.047 9.035-36.141 12.047 24.094-21.082zM475.859 785.318l6.024-12.047 12.047-3.012-12.047 30.118-6.024-15.059zM515.012 755.2l12.047 6.024-18.071 15.059 6.024-21.082zM545.129 444.988c12.047 3.012 21.082 6.024 30.118 6.024s18.071-3.012 27.106-6.024h3.012c6.024-3.012 9.035-3.012 12.047-3.012s0 3.012-3.012 3.012c-6.024 6.024-12.047 12.047-21.082 15.059s-18.071 3.012-27.106 3.012-18.071-6.024-24.094-12.047c-3.012-3.012-6.024-6.024-6.024-9.035s0-3.012 0-3.012 3.012 3.012 9.035 6.024v0zM572.235 417.882c9.035 6.024 21.082 6.024 33.129 6.024h3.012c3.012 0 6.024 0 6.024 3.012s0 3.012-6.024 6.024-12.047 3.012-18.071 3.012l-9.035-3.012c-3.012 0-6.024-3.012-12.047-6.024s-6.024-9.035-6.024-9.035 3.012 0 9.035 0v0zM590.306 255.247v0zM590.306 255.247v0zM590.306 255.247v0 0zM590.306 255.247v0 0zM590.306 252.235l3.012-3.012c0 0-3.012 3.012-3.012 3.012zM590.306 252.235l3.012-3.012c0 0-3.012 3.012-3.012 3.012zM662.588 435.953c0-3.012 0-6.024 0-9.035s3.012-6.024 6.024-6.024 6.024-3.012 9.035-3.012 6.024 3.012 6.024 3.012 0 6.024 0 6.024-3.012 3.012-6.024 6.024-6.024 3.012-9.035 3.012-3.012 3.012-6.024 0zM683.671 499.2l3.012-21.082c9.035 0 18.071 0 27.106-6.024 0 12.047-3.012 21.082-9.035 33.129s-9.035 12.047-15.059 12.047c-3.012-3.012-6.024-9.035-6.024-18.071zM713.788 454.024c-3.012 0-3.012 0-6.024-3.012s-3.012-3.012-3.012-6.024 0-6.024 0-9.035 3.012-3.012 6.024-3.012 6.024 0 6.024 3.012 3.012 3.012 3.012 6.024 0 6.024-3.012 9.035 0 3.012-3.012 3.012z" />
<glyph unicode="&#xe972;" glyph-name="brand-magento" d="M903.529 213.082l-114.447-63.247v448.753l-277.082 162.635-280.094-162.635 3.012-451.765-114.447 66.259v451.765l391.529 225.882 391.529-225.882v-451.765zM512 116.706l-57.224 30.118v451.765l-111.435-63.247v-451.765l168.659-96.376 168.659 96.376v451.765l-111.435 63.247v-448.753l-57.224-33.129z" />
<glyph unicode="&#xe973;" glyph-name="brand-linkedin-in" d="M144.565 728.094c-18.071 18.071-27.106 42.165-27.106 66.259s9.035 48.188 27.106 66.259 42.165 30.118 66.259 30.118 48.188-9.035 66.259-27.106 27.106-42.165 27.106-66.259-6.024-51.2-24.094-69.271-42.165-27.106-69.271-27.106-48.188 9.035-66.259 27.106zM129.506 98.635v530.071h162.635v-527.059h-162.635zM743.906 98.635v259.012c0 42.165-3.012 72.282-12.047 90.353-12.047 33.129-39.153 48.188-75.294 48.188s-63.247-15.059-78.306-42.165c-12.047-21.082-18.071-51.2-18.071-93.365v-262.024h-162.635v530.071h156.612v-72.282h3.012c12.047 24.094 30.118 42.165 57.224 57.224 27.106 18.071 60.235 27.106 99.388 27.106 75.294 0 129.506-24.094 159.624-72.282 24.094-39.153 36.141-99.388 36.141-180.706v-289.129h-165.647z" />
<glyph unicode="&#xe974;" glyph-name="brand-linkedin" d="M852.329 833.506c15.059 0 27.106-6.024 39.153-18.071s18.071-24.094 18.071-39.153v-677.647c0-15.059-6.024-27.106-18.071-39.153s-24.094-18.071-39.153-18.071h-677.647c-15.059 0-27.106 6.024-39.153 18.071s-18.071 24.094-18.071 39.153v677.647c0 15.059 6.024 27.106 18.071 39.153s24.094 18.071 39.153 18.071h677.647zM298.165 583.529c18.071 0 36.141 6.024 48.188 21.082s21.082 30.118 21.082 48.188-6.024 33.129-21.082 48.188-30.118 21.082-48.188 21.082-36.141-9.035-48.188-21.082-18.071-30.118-18.071-48.188 6.024-33.129 18.071-48.188 27.106-21.082 48.188-21.082zM355.388 155.859v0l3.012 376.471h-120.471v-376.471h117.459zM795.106 155.859v207.812c0 60.235-9.035 102.4-24.094 129.506-21.082 33.129-60.235 51.2-114.447 51.2-27.106 0-51.2-6.024-72.282-18.071-18.071-12.047-30.118-24.094-39.153-39.153h-3.012v51.2h-114.447v-376.471h117.459v186.729c0 30.118 3.012 51.2 12.047 66.259 12.047 21.082 30.118 30.118 57.224 30.118s45.176-12.047 54.212-33.129c6.024-15.059 9.035-36.141 9.035-66.259v-183.718h117.459z" />
<glyph unicode="&#xe975;" glyph-name="brand-instagram" d="M906.541 601.6c0-33.129 3.012-87.341 3.012-162.635s0-132.518-3.012-165.647-6.024-63.247-15.059-87.341c-12.047-30.118-27.106-54.212-48.188-75.294s-48.188-39.153-75.294-48.188c-24.094-9.035-54.212-12.047-87.341-15.059s-87.341-3.012-165.647-3.012-132.518 0-165.647 3.012-63.247 6.024-87.341 18.071c-30.118 9.035-54.212 24.094-75.294 48.188s-39.153 48.188-48.188 75.294c-12.047 21.082-18.071 51.2-18.071 84.329s-3.012 87.341-3.012 165.647 0 132.518 3.012 165.647 6.024 63.247 15.059 87.341c12.047 30.118 27.106 54.212 48.188 75.294s48.188 39.153 75.294 48.188c24.094 9.035 54.212 12.047 87.341 15.059s87.341 3.012 165.647 3.012 132.518 0 165.647-3.012 63.247-6.024 87.341-15.059c30.118-12.047 54.212-27.106 75.294-48.188s39.153-48.188 48.188-75.294c9.035-27.106 15.059-54.212 18.071-90.353zM822.212 204.047c6.024 21.082 12.047 51.2 15.059 96.376 0 27.106 3.012 63.247 3.012 108.424v57.224c0 48.188 0 84.329-3.012 108.424-3.012 45.176-6.024 75.294-15.059 96.376-15.059 36.141-39.153 63.247-75.294 75.294-18.071 6.024-51.2 12.047-96.376 15.059-27.106 0-63.247 3.012-108.424 3.012h-57.224c-48.188 0-84.329 0-108.424-3.012-45.176-3.012-78.306-6.024-96.376-15.059-36.141-12.047-63.247-39.153-75.294-75.294-6.024-18.071-12.047-51.2-15.059-96.376 0-27.106-3.012-63.247-3.012-108.424v-57.224c0-48.188 0-84.329 3.012-108.424 3.012-42.165 6.024-75.294 15.059-96.376 15.059-36.141 39.153-63.247 75.294-75.294 18.071-6.024 51.2-12.047 93.365-12.047 27.106 0 63.247-3.012 108.424-3.012h57.224c48.188 0 84.329 0 108.424 3.012 45.176 3.012 75.294 6.024 96.376 15.059 39.153 12.047 63.247 39.153 78.306 72.282zM512 640.753c36.141 0 69.271-9.035 102.4-27.106s57.224-42.165 75.294-75.294 27.106-66.259 27.106-102.4-9.035-69.271-27.106-102.4-42.165-57.224-75.294-75.294-66.259-27.106-102.4-27.106-69.271 9.035-102.4 27.106-57.224 42.165-75.294 75.294-27.106 66.259-27.106 102.4 9.035 69.271 27.106 102.4 42.165 57.224 75.294 75.294 66.259 27.106 102.4 27.106zM512 306.447c36.141 0 66.259 12.047 93.365 39.153s39.153 57.224 39.153 93.365-12.047 66.259-39.153 93.365-57.224 39.153-93.365 39.153-66.259-12.047-93.365-39.153-39.153-57.224-39.153-93.365 12.047-66.259 39.153-93.365 57.224-39.153 93.365-39.153zM771.012 649.788c0 12.047-6.024 24.094-15.059 33.129s-18.071 15.059-33.129 15.059-24.094-6.024-33.129-15.059-15.059-21.082-15.059-33.129 6.024-24.094 15.059-33.129 21.082-15.059 33.129-15.059 24.094 6.024 33.129 15.059 15.059 21.082 15.059 33.129z" />
<glyph unicode="&#xe976;" glyph-name="brand-google-g" d="M620.424 475.106c0-57.224-12.047-108.424-36.141-153.6s-60.235-81.318-102.4-105.412-96.376-39.153-153.6-39.153c-54.212 0-105.412 15.059-153.6 42.165s-81.318 63.247-108.424 108.424-39.153 96.376-39.153 153.6 12.047 105.412 39.153 153.6 63.247 84.329 111.435 111.435 99.388 42.165 153.6 42.165c78.306 0 147.576-27.106 204.8-78.306l-84.329-84.329c-33.129 30.118-72.282 45.176-120.471 45.176-33.129 0-66.259-9.035-93.365-24.094s-51.2-39.153-69.271-69.271-24.094-63.247-24.094-96.376 9.035-66.259 24.094-96.376 39.153-54.212 69.271-69.271 60.235-24.094 93.365-24.094c36.141 0 69.271 9.035 96.376 24.094 21.082 12.047 39.153 30.118 54.212 54.212 12.047 18.071 18.071 36.141 21.082 51.2h-171.671v105.412h286.118c3.012-18.071 3.012-36.141 3.012-51.2zM909.553 604.612h-90.353v-90.353h-87.341v-90.353h87.341v-90.353h90.353v90.353h90.353v90.353h-90.353v90.353z" />
<glyph unicode="&#xe977;" glyph-name="brand-google" d="M822.212 833.506c24.094 0 42.165-9.035 60.235-24.094s24.094-36.141 24.094-60.235v-620.424c0-24.094-9.035-42.165-24.094-60.235s-36.141-24.094-60.235-24.094h-620.424c-24.094 0-42.165 9.035-60.235 24.094s-24.094 36.141-24.094 60.235v620.424c0 24.094 9.035 42.165 24.094 60.235s36.141 24.094 60.235 24.094h620.424zM406.588 261.271c51.2 0 90.353 15.059 123.482 48.188s48.188 72.282 48.188 126.494c0 9.035 0 18.071-3.012 27.106h-165.647v-60.235h99.388c-3.012-18.071-12.047-33.129-27.106-48.188-18.071-18.071-42.165-27.106-72.282-27.106s-57.224 12.047-78.306 33.129-33.129 48.188-33.129 78.306 12.047 57.224 33.129 78.306 45.176 33.129 75.294 33.129 54.212-9.035 72.282-27.106l48.188 45.176c-33.129 30.118-72.282 45.176-117.459 45.176-48.188 0-90.353-18.071-123.482-51.2s-51.2-75.294-51.2-123.482 18.071-90.353 51.2-123.482 72.282-54.212 120.471-54.212zM795.106 405.835v51.2h-51.2v51.2h-51.2v-51.2h-51.2v-51.2h51.2v-51.2h51.2v51.2h51.2z" />
<glyph unicode="&#xe978;" glyph-name="brand-facebook-f" d="M415.624 390.776h-135.529v159.624h135.529v129.506c0 66.259 18.071 120.471 57.224 156.612s87.341 54.212 150.588 54.212c51.2 0 90.353-3.012 123.482-6.024v-141.553h-84.329c-33.129 0-54.212-6.024-66.259-21.082-9.035-12.047-15.059-30.118-15.059-57.224v-111.435h150.588l-21.082-159.624h-129.506v-403.576h-165.647v400.565z" />
<glyph unicode="&#xe979;" glyph-name="brand-facebook" d="M906.541 128.753c0-24.094-9.035-42.165-24.094-60.235s-36.141-24.094-60.235-24.094h-150.588v310.212h105.412l15.059 120.471h-120.471v75.294c0 18.071 3.012 33.129 12.047 42.165 9.035 12.047 24.094 15.059 48.188 15.059h63.247v108.424c-24.094 3.012-54.212 6.024-90.353 6.024-48.188 0-84.329-15.059-111.435-42.165s-42.165-66.259-42.165-114.447v-87.341h-108.424v-120.471h108.424v-313.224h-349.365c-24.094 0-42.165 9.035-60.235 24.094s-24.094 36.141-24.094 60.235v620.424c0 24.094 9.035 42.165 24.094 60.235s36.141 24.094 60.235 24.094h620.424c24.094 0 42.165-9.035 60.235-24.094s24.094-36.141 24.094-60.235v-620.424z" />
</font>
</defs>
</svg>
